if (_typeface_js && _typeface_js.loadFace) _typeface_js.loadFace({"glyphs":{"ҷ":{"x_min":95.828125,"x_max":600,"ha":706,"o":"m 95 727 l 212 727 l 212 415 l 483 415 l 483 727 l 600 727 l 600 0 l 483 0 l 483 309 l 212 309 q 104 355 123 309 q 95 411 95 376 l 95 727 "},"Ӈ":{"x_min":115.28125,"x_max":894.453125,"ha":1003,"o":"m 763 461 l 245 461 l 245 0 l 115 0 l 115 1012 l 244 1012 l 244 575 l 763 575 l 763 1012 l 894 1012 l 894 0 l 763 0 l 763 461 "},"Ҿ":{"x_min":55.53125,"x_max":924.9375,"ha":956,"o":"m 924 398 l 215 398 q 266 211 217 278 q 498 97 345 97 q 750 273 685 97 l 904 273 q 673 -1 864 70 q 492 -31 592 -31 q 127 152 243 -31 q 55 433 55 266 q 228 826 55 697 q 496 908 338 908 q 827 771 708 908 q 886 677 864 729 q 924 398 924 585 m 219 512 l 759 512 q 761 522 761 515 q 652 731 761 656 q 494 779 583 779 q 263 654 338 779 q 219 512 226 594 "},"ӱ":{"x_min":27.78125,"x_max":663.890625,"ha":694,"o":"m 305 926 l 305 783 l 160 783 l 160 926 l 305 926 m 530 926 l 530 783 l 385 783 l 385 926 l 530 926 m 538 727 l 663 727 l 340 -152 q 261 -268 309 -231 q 152 -302 213 -302 q 75 -284 109 -302 l 75 -180 q 136 -188 112 -188 q 223 -133 198 -188 q 229 -118 226 -126 l 273 -2 l 27 727 l 151 727 l 337 161 l 538 727 "},"Ҧ":{"x_min":115.28125,"x_max":894.453125,"ha":1003,"o":"m 763 898 l 245 898 l 245 0 l 115 0 l 115 1012 l 894 1012 l 894 0 l 763 0 l 763 898 "},"е":{"x_min":55.5625,"x_max":712.5,"ha":772,"o":"m 712 325 l 176 325 q 215 169 177 225 q 390 75 275 75 q 580 220 531 75 l 697 220 q 522 -6 666 52 q 386 -31 461 -31 q 109 120 197 -31 q 55 354 55 215 q 186 680 55 573 q 388 748 269 748 q 638 634 548 748 q 683 556 666 600 q 712 325 712 480 m 179 419 l 587 419 q 588 427 588 422 q 506 601 588 538 q 387 641 454 641 q 212 537 269 641 q 179 419 184 487 "},"e":{"x_min":55.5625,"x_max":712.5,"ha":772,"o":"m 712 325 l 176 325 q 215 169 177 225 q 390 75 275 75 q 580 220 531 75 l 697 220 q 522 -6 666 52 q 386 -31 461 -31 q 109 120 197 -31 q 55 354 55 215 q 186 680 55 573 q 388 748 269 748 q 638 634 548 748 q 683 556 666 600 q 712 325 712 480 m 179 419 l 587 419 q 588 427 588 422 q 506 601 588 538 q 387 641 454 641 q 212 537 269 641 q 179 419 184 487 "},"Ѓ":{"x_min":125,"x_max":804.171875,"ha":849,"o":"m 254 0 l 125 0 l 125 1012 l 804 1012 l 804 898 l 254 898 l 254 0 m 452 1273 l 609 1273 l 402 1068 l 319 1068 l 452 1273 "},"ў":{"x_min":27.78125,"x_max":663.890625,"ha":694,"o":"m 135 970 l 217 970 q 345 879 228 879 q 470 958 452 879 q 471 970 471 963 l 553 970 q 342 783 538 783 q 165 862 223 783 q 135 970 137 901 m 538 727 l 663 727 l 340 -152 q 261 -268 309 -231 q 152 -302 213 -302 q 75 -284 109 -302 l 75 -180 q 136 -188 112 -188 q 223 -133 198 -188 q 229 -118 226 -126 l 273 -2 l 27 727 l 151 727 l 337 161 l 538 727 "},"^":{"x_min":61.109375,"x_max":590.28125,"ha":651,"o":"m 273 984 l 375 984 l 590 456 l 494 456 l 325 873 l 156 456 l 61 456 l 273 984 "},"Ӑ":{"x_min":23.609375,"x_max":906.953125,"ha":926,"o":"m 256 1255 l 338 1255 q 466 1164 349 1164 q 591 1243 573 1164 q 592 1255 592 1248 l 674 1255 q 463 1068 659 1068 q 286 1147 344 1068 q 256 1255 258 1186 m 658 304 l 268 304 l 161 0 l 23 0 l 384 1012 l 551 1012 l 906 0 l 762 0 l 658 304 m 622 412 l 466 873 l 300 412 l 622 412 "},"к":{"x_min":97.21875,"x_max":672.21875,"ha":708,"o":"m 212 727 l 212 433 l 506 727 l 640 727 l 291 380 l 672 0 l 525 0 l 212 313 l 212 0 l 97 0 l 97 727 l 212 727 "},"ң":{"x_min":97.21875,"x_max":677.78125,"ha":772,"o":"m 97 727 l 213 727 l 213 429 l 561 429 l 561 727 l 677 727 l 677 0 l 561 0 l 561 323 l 213 323 l 213 0 l 97 0 l 97 727 "},"Ҫ":{"x_min":66.671875,"x_max":940.28125,"ha":1003,"o":"m 919 698 l 787 698 q 713 851 766 802 q 513 915 638 912 q 251 755 336 915 q 195 495 195 651 q 327 150 195 259 q 525 81 409 81 q 747 188 676 81 q 761 212 755 200 q 806 369 791 270 l 940 369 q 523 -31 894 -31 q 213 86 327 -31 q 66 494 66 237 q 208 902 66 748 q 529 1029 322 1029 q 919 698 859 1029 "},"қ":{"x_min":80.5625,"x_max":697.21875,"ha":694,"o":"m 195 727 l 195 419 l 504 727 l 652 727 l 275 366 l 697 0 l 554 0 l 195 300 l 195 0 l 80 0 l 80 727 l 195 727 "},"-":{"x_min":63.890625,"x_max":394.4375,"ha":463,"o":"m 394 433 l 394 333 l 63 333 l 63 433 l 394 433 "},"ѕ":{"x_min":47.21875,"x_max":637.5,"ha":694,"o":"m 608 525 l 486 525 q 340 641 481 641 q 194 573 226 641 q 186 531 186 554 q 277 438 186 469 q 320 427 297 433 l 431 401 q 627 265 595 362 q 637 198 637 236 q 512 4 637 65 q 337 -31 440 -31 q 48 193 68 -31 q 47 216 47 204 l 169 216 q 202 123 177 151 q 347 75 248 75 q 502 140 463 75 q 516 188 516 162 q 441 279 516 252 l 404 290 l 295 316 q 87 427 130 356 q 65 526 65 466 q 181 713 65 655 q 344 748 250 748 q 594 608 545 748 q 608 525 608 570 "},"Q":{"x_min":52.78125,"x_max":1030.5625,"ha":1081,"o":"m 1018 -1 l 952 -81 l 806 38 q 541 -31 687 -31 q 173 130 309 -31 q 52 498 52 275 q 206 902 52 754 q 541 1029 340 1029 q 908 868 772 1029 q 1030 501 1030 723 q 887 105 1030 262 l 1018 -1 m 668 284 l 791 183 q 901 500 901 306 q 770 833 901 718 q 541 915 676 915 q 259 773 359 915 q 181 498 181 662 q 313 162 181 277 q 540 81 406 81 q 706 120 623 81 l 604 206 l 668 284 "},"Ш":{"x_min":109.71875,"x_max":1040.28125,"ha":1150,"o":"m 640 113 l 909 113 l 909 1012 l 1040 1012 l 1040 0 l 109 0 l 109 1012 l 240 1012 l 240 113 l 509 113 l 509 1012 l 640 1012 l 640 113 "},"M":{"x_min":104.171875,"x_max":1056.953125,"ha":1157,"o":"m 650 0 l 513 0 l 226 848 l 226 0 l 104 0 l 104 1012 l 283 1012 l 583 130 l 877 1012 l 1056 1012 l 1056 0 l 934 0 l 934 848 l 650 0 "},"ј":{"x_min":-25,"x_max":212.5,"ha":308,"o":"m 97 727 l 212 727 l 212 -151 q 34 -302 212 -294 q 13 -302 25 -302 q -25 -298 -4 -302 l -25 -200 q 2 -201 -1 -201 q 90 -156 75 -201 q 97 -105 97 -137 l 97 727 m 212 1012 l 212 866 l 97 866 l 97 1012 l 212 1012 "},"ҏ":{"x_min":75,"x_max":726.390625,"ha":772,"o":"m 75 -302 l 75 727 l 181 727 l 181 618 q 413 748 263 748 q 673 594 590 748 q 726 351 726 495 q 602 33 726 137 q 476 -26 548 -12 q 415 -31 447 -31 q 191 76 280 -31 l 191 -302 l 75 -302 m 394 640 q 225 523 279 640 q 191 358 191 454 q 287 112 191 184 q 394 76 333 76 q 569 188 511 76 q 605 354 605 258 q 506 604 605 530 q 394 640 458 640 "},"ӗ":{"x_min":55.5625,"x_max":712.5,"ha":772,"o":"m 237 970 l 319 970 q 447 879 330 879 q 572 958 554 879 q 573 970 573 963 l 655 970 q 444 783 640 783 q 267 862 325 783 q 237 970 239 901 m 712 325 l 176 325 q 215 169 177 225 q 390 75 275 75 q 580 220 531 75 l 697 220 q 522 -6 666 52 q 386 -31 461 -31 q 109 120 197 -31 q 55 354 55 215 q 186 680 55 573 q 388 748 269 748 q 638 634 548 748 q 683 556 666 600 q 712 325 712 480 m 179 419 l 587 419 q 588 427 588 422 q 506 601 588 538 q 387 641 454 641 q 212 537 269 641 q 179 419 184 487 "},"ҩ":{"x_min":43.0625,"x_max":662.5,"ha":694,"o":"m 654 483 l 537 483 q 402 638 519 618 l 365 641 q 186 502 234 641 q 163 351 163 438 q 273 98 163 161 q 368 75 313 75 q 545 250 516 75 l 662 250 q 502 -4 647 59 q 365 -31 443 -31 q 100 113 186 -31 q 43 351 43 211 q 170 680 43 573 q 366 748 252 748 q 594 654 513 748 q 605 640 600 647 q 654 483 645 580 "},"{":{"x_min":59.71875,"x_max":383.328125,"ha":464,"o":"m 383 1012 l 383 922 l 362 922 q 281 884 297 922 l 275 848 l 275 829 l 275 577 q 218 393 275 441 l 186 370 q 161 359 175 365 q 275 140 275 306 l 275 -111 q 309 -195 275 -180 q 362 -204 327 -204 l 383 -204 l 383 -294 l 319 -294 q 176 -183 205 -294 q 168 -112 168 -151 l 168 119 q 119 286 168 248 q 59 311 97 302 l 59 406 q 154 483 134 422 q 168 598 168 523 l 168 830 q 266 1004 168 972 q 319 1012 291 1012 l 383 1012 "},"ҿ":{"x_min":55.5625,"x_max":712.5,"ha":772,"o":"m 712 325 l 176 325 q 215 169 177 225 q 390 75 275 75 q 580 220 531 75 l 697 220 q 522 -6 666 52 q 386 -31 461 -31 q 109 120 197 -31 q 55 354 55 215 q 186 680 55 573 q 388 748 269 748 q 638 634 548 748 q 683 556 666 600 q 712 325 712 480 m 179 419 l 587 419 q 588 427 588 422 q 506 601 588 538 q 387 641 454 641 q 212 537 269 641 q 179 419 184 487 "},"#":{"x_min":19.4375,"x_max":752.78125,"ha":772,"o":"m 673 968 l 623 695 l 752 695 l 752 601 l 605 601 l 562 359 l 708 359 l 708 265 l 545 265 l 491 -27 l 386 -27 l 438 265 l 266 265 l 212 -27 l 106 -27 l 159 265 l 19 265 l 19 359 l 177 359 l 220 601 l 70 601 l 70 695 l 238 695 l 288 968 l 394 968 l 344 695 l 518 695 l 566 968 l 673 968 m 500 601 l 327 601 l 283 359 l 456 359 l 500 601 "},"Ӄ":{"x_min":109.71875,"x_max":913.890625,"ha":926,"o":"m 238 0 l 109 0 l 109 1012 l 238 1012 l 238 575 l 743 1012 l 909 1012 l 337 520 l 913 0 l 761 0 l 238 450 l 238 0 "},"Џ":{"x_min":115.28125,"x_max":895.828125,"ha":1003,"o":"m 561 0 l 561 -187 l 450 -187 l 450 0 l 115 0 l 115 1012 l 245 1012 l 245 113 l 765 113 l 765 1012 l 895 1012 l 895 0 l 561 0 "},")":{"x_min":52.78125,"x_max":355.5625,"ha":463,"o":"m 129 -294 l 52 -294 q 241 301 225 -16 q 243 358 243 330 q 73 977 243 681 q 52 1012 63 995 l 129 1012 q 337 540 286 806 q 355 358 355 445 q 226 -138 355 109 q 129 -294 183 -223 "},"э":{"x_min":43.0625,"x_max":662.5,"ha":694,"o":"m 226 322 l 226 429 l 537 429 q 397 633 513 597 q 340 641 370 641 q 175 518 209 641 q 168 483 170 501 l 51 483 q 100 640 59 580 q 313 747 172 738 q 338 748 326 748 q 600 605 511 748 q 662 351 662 502 q 530 29 662 130 l 488 2 q 340 -31 423 -31 q 80 111 155 -31 q 43 250 48 170 l 159 250 q 337 75 188 75 q 519 208 470 75 q 541 322 538 258 l 226 322 "},"ӫ":{"x_min":50,"x_max":708.328125,"ha":772,"o":"m 339 926 l 339 783 l 194 783 l 194 926 l 339 926 m 564 926 l 564 783 l 419 783 l 419 926 l 564 926 m 377 748 q 668 569 588 748 q 708 352 708 479 q 566 22 708 120 q 379 -31 488 -31 q 95 133 179 -31 q 50 358 50 226 q 195 697 50 600 q 377 748 272 748 m 379 641 q 197 513 250 641 q 170 358 170 447 q 279 101 170 168 q 379 75 322 75 q 558 197 504 75 q 587 354 587 262 q 473 619 587 555 q 379 641 431 641 "},"Ә":{"x_min":52.78125,"x_max":1030.5625,"ha":1081,"o":"m 65 627 q 276 956 105 850 q 540 1029 390 1029 q 916 858 781 1029 l 952 805 q 1030 490 1030 672 q 916 138 1030 284 q 855 75 888 102 q 541 -31 729 -31 q 173 130 309 -31 q 52 498 52 275 q 54 534 52 522 l 900 534 q 747 852 887 751 q 540 915 659 915 q 259 773 359 915 q 195 627 215 711 l 65 627 m 897 420 l 186 420 q 352 134 212 225 q 541 81 434 81 q 820 220 720 81 q 897 420 881 304 "},"ш":{"x_min":97.21875,"x_max":863.890625,"ha":961,"o":"m 538 105 l 747 105 l 747 727 l 863 727 l 863 0 l 97 0 l 97 727 l 213 727 l 213 105 l 422 105 l 422 727 l 538 727 l 538 105 "},"Я":{"x_min":44.4375,"x_max":865.28125,"ha":975,"o":"m 581 436 l 197 0 l 44 0 l 423 436 q 134 622 205 436 q 109 723 116 668 q 187 927 109 845 q 408 1012 266 1012 l 865 1012 l 865 0 l 736 0 l 736 436 l 581 436 m 736 898 l 420 898 q 286 850 330 898 q 238 723 238 800 q 286 598 238 648 q 420 550 330 550 l 736 550 l 736 898 "},"a":{"x_min":58.328125,"x_max":743.0625,"ha":772,"o":"m 743 68 l 743 -19 q 663 -31 694 -31 q 547 55 565 -31 q 544 75 545 65 q 297 -31 423 -30 q 84 72 144 -31 q 58 183 58 120 q 186 377 58 325 q 366 415 236 398 q 419 422 388 418 q 536 475 520 434 q 540 502 540 486 l 540 533 q 427 638 540 622 q 377 641 404 641 q 211 537 234 641 q 206 512 208 525 l 90 512 q 140 663 94 612 q 381 748 216 748 q 652 587 626 748 q 655 550 655 569 l 655 122 q 718 65 655 65 q 743 68 730 65 m 540 229 l 540 359 q 381 323 495 338 q 354 319 369 322 q 184 223 206 298 q 179 186 179 206 q 272 75 179 95 q 322 69 294 69 q 494 134 422 69 q 540 229 538 175 "},"=":{"x_min":69.4375,"x_max":741.671875,"ha":811,"o":"m 741 490 l 741 393 l 69 393 l 69 490 l 741 490 m 741 251 l 741 154 l 69 154 l 69 251 l 741 251 "},"Ћ":{"x_min":38.890625,"x_max":997.21875,"ha":1064,"o":"m 445 630 l 768 630 q 966 526 905 630 q 997 413 997 475 l 997 0 l 868 0 l 868 437 q 776 516 868 511 l 445 516 l 445 0 l 316 0 l 315 900 l 38 900 l 38 1011 l 719 1011 l 719 900 l 445 900 l 445 630 "},"д":{"x_min":41.671875,"x_max":794.453125,"ha":836,"o":"m 120 88 q 233 609 225 100 q 234 727 234 663 l 705 727 l 705 88 l 794 88 l 794 -166 l 697 -166 l 697 0 l 138 0 l 138 -166 l 41 -166 l 41 88 l 120 88 m 281 105 l 588 105 l 588 622 l 350 622 l 348 425 q 281 105 338 209 "},"ӥ":{"x_min":97.21875,"x_max":690.28125,"ha":788,"o":"m 347 926 l 347 783 l 202 783 l 202 926 l 347 926 m 572 926 l 572 783 l 427 783 l 427 926 l 572 926 m 97 727 l 213 727 l 213 154 l 540 727 l 690 727 l 690 0 l 575 0 l 575 573 l 248 0 l 97 0 l 97 727 "},"Ӣ":{"x_min":109.71875,"x_max":901.390625,"ha":1011,"o":"m 691 1165 l 691 1068 l 310 1068 l 310 1165 l 691 1165 m 109 1012 l 231 1012 l 231 175 l 761 1012 l 901 1012 l 901 0 l 779 0 l 779 830 l 255 0 l 109 0 l 109 1012 "},"Z":{"x_min":38.890625,"x_max":809.71875,"ha":849,"o":"m 806 1012 l 806 895 l 201 113 l 809 113 l 809 0 l 38 0 l 38 113 l 647 898 l 77 898 l 77 1012 l 806 1012 "},"u":{"x_min":90.28125,"x_max":669.453125,"ha":772,"o":"m 669 0 l 565 0 l 565 101 q 384 -26 487 -8 q 322 -31 356 -31 q 116 65 173 -31 q 90 166 90 109 l 90 727 l 205 727 l 205 212 q 287 81 205 115 q 355 69 318 69 q 526 177 473 69 q 554 315 554 236 l 554 727 l 669 727 l 669 0 "},"k":{"x_min":80.5625,"x_max":697.21875,"ha":694,"o":"m 195 1012 l 195 419 l 504 727 l 652 727 l 400 476 l 697 0 l 554 0 l 308 394 l 195 283 l 195 0 l 80 0 l 80 1012 l 195 1012 "},"З":{"x_min":66.671875,"x_max":862.5,"ha":926,"o":"m 356 445 l 356 559 l 479 559 q 652 643 580 559 q 698 750 698 698 q 598 895 698 851 q 472 920 544 920 q 230 784 273 920 q 219 715 219 752 l 97 715 q 268 991 98 916 q 468 1029 351 1029 q 777 898 686 1029 q 822 795 811 852 q 827 731 827 765 q 681 519 827 581 q 861 312 841 459 q 862 277 862 295 q 781 73 862 161 q 751 45 766 58 q 466 -31 650 -31 q 126 112 231 -31 q 66 322 68 191 l 188 322 l 193 269 q 241 166 202 212 q 475 81 312 81 q 661 125 598 81 q 731 245 722 168 q 733 265 733 255 q 662 391 733 333 q 506 445 595 445 l 356 445 "},"Ҷ":{"x_min":115.28125,"x_max":769.453125,"ha":892,"o":"m 640 419 l 244 419 q 118 504 136 419 q 115 531 115 516 l 115 1012 l 244 1012 l 244 533 l 640 533 l 640 1012 l 769 1012 l 769 0 l 640 0 l 640 419 "},"B":{"x_min":109.71875,"x_max":865.28125,"ha":926,"o":"m 109 0 l 109 1012 l 520 1012 q 740 941 663 1012 q 820 755 820 869 q 680 534 820 600 q 855 366 826 477 q 865 306 863 338 q 865 288 865 298 q 787 84 865 166 q 566 0 708 0 l 109 0 m 238 576 l 488 576 q 636 612 588 576 q 691 737 691 655 q 636 862 691 819 q 488 898 588 898 l 238 898 l 238 576 m 736 287 q 637 447 736 408 q 554 462 601 462 l 238 462 l 238 113 l 554 113 q 688 162 644 113 q 736 287 736 212 "},"В":{"x_min":109.71875,"x_max":865.28125,"ha":926,"o":"m 109 0 l 109 1012 l 520 1012 q 740 941 663 1012 q 820 755 820 869 q 680 534 820 600 q 855 366 826 477 q 865 306 863 338 q 865 288 865 298 q 787 84 865 166 q 566 0 708 0 l 109 0 m 238 576 l 488 576 q 636 612 588 576 q 691 737 691 655 q 636 862 691 819 q 488 898 588 898 l 238 898 l 238 576 m 736 287 q 637 447 736 408 q 554 462 601 462 l 238 462 l 238 113 l 554 113 q 688 162 644 113 q 736 287 736 212 "},"І":{"x_min":138.890625,"x_max":269.4375,"ha":386,"o":"m 269 1012 l 269 0 l 138 0 l 138 1012 l 269 1012 "},"H":{"x_min":115.28125,"x_max":894.453125,"ha":1003,"o":"m 765 461 l 245 461 l 245 0 l 115 0 l 115 1012 l 244 1012 l 244 575 l 765 575 l 765 1012 l 894 1012 l 894 0 l 765 0 l 765 461 "},"Ғ":{"x_min":125,"x_max":804.171875,"ha":849,"o":"m 254 0 l 125 0 l 125 1012 l 804 1012 l 804 898 l 254 898 l 254 0 "},"U":{"x_min":118.0625,"x_max":895.828125,"ha":1003,"o":"m 766 1012 l 895 1012 l 895 301 q 751 30 895 120 q 505 -31 651 -31 q 175 108 276 -31 q 118 301 118 188 l 118 1012 l 247 1012 l 247 301 q 400 95 247 138 q 505 81 447 81 q 740 193 677 81 q 766 301 766 240 l 766 1012 "},"F":{"x_min":125,"x_max":804.171875,"ha":849,"o":"m 254 461 l 254 0 l 125 0 l 125 1012 l 804 1012 l 804 898 l 254 898 l 254 575 l 737 575 l 737 461 l 254 461 "},"ҵ":{"x_min":97.21875,"x_max":788.890625,"ha":844,"o":"m 97 0 l 97 727 l 213 727 l 213 105 l 559 105 l 559 727 l 676 727 l 676 88 l 788 88 l 788 -166 l 691 -166 l 691 0 l 97 0 "},"Ӹ":{"x_min":109.71875,"x_max":1101.390625,"ha":1211,"o":"m 572 1211 l 572 1068 l 427 1068 l 427 1211 l 572 1211 m 797 1211 l 797 1068 l 652 1068 l 652 1211 l 797 1211 m 865 313 q 748 65 865 155 q 545 0 663 0 l 109 0 l 109 1012 l 238 1012 l 238 626 l 468 626 q 859 386 815 626 q 865 313 865 352 m 238 113 l 533 113 q 702 200 645 113 q 736 312 736 248 q 645 483 736 429 q 533 512 597 512 l 238 512 l 238 113 m 1101 1012 l 1101 0 l 970 0 l 970 1012 l 1101 1012 "},"ӭ":{"x_min":43.0625,"x_max":662.5,"ha":694,"o":"m 254 926 l 254 783 l 109 783 l 109 926 l 254 926 m 479 926 l 479 783 l 334 783 l 334 926 l 479 926 m 226 322 l 226 429 l 537 429 q 397 633 513 597 q 340 641 370 641 q 175 518 209 641 q 168 483 170 501 l 51 483 q 100 640 59 580 q 313 747 172 738 q 338 748 326 748 q 600 605 511 748 q 662 351 662 502 q 530 29 662 130 l 488 2 q 340 -31 423 -31 q 80 111 155 -31 q 43 250 48 170 l 159 250 q 337 75 188 75 q 519 208 470 75 q 541 322 538 258 l 226 322 "},"*":{"x_min":55.5625,"x_max":476.390625,"ha":540,"o":"m 222 1012 l 309 1012 l 302 856 l 450 909 l 476 827 l 326 786 l 423 662 l 352 612 l 266 741 l 179 612 l 109 662 l 205 786 l 55 827 l 81 909 l 229 856 l 222 1012 "},"Ќ":{"x_min":109.71875,"x_max":913.890625,"ha":926,"o":"m 238 0 l 109 0 l 109 1012 l 238 1012 l 238 575 l 743 1012 l 909 1012 l 337 520 l 913 0 l 761 0 l 238 450 l 238 0 m 497 1273 l 654 1273 l 447 1068 l 363 1068 l 497 1273 "},"0":{"x_min":59.71875,"x_max":704.171875,"ha":772,"o":"m 381 984 q 702 527 684 984 q 704 468 704 498 q 512 -4 704 91 q 381 -31 454 -31 q 77 268 137 -31 q 59 476 59 359 q 155 876 59 747 q 362 984 230 975 q 381 984 372 984 m 381 876 q 184 475 184 876 q 379 69 184 69 q 572 336 543 69 q 579 479 579 400 q 381 876 579 876 "},"Ӕ":{"x_min":15.28125,"x_max":1319.453125,"ha":1389,"o":"m 650 297 l 276 297 l 158 0 l 15 0 l 430 1012 l 1294 1012 l 1294 898 l 779 898 l 779 575 l 1268 575 l 1268 461 l 779 461 l 779 113 l 1319 113 l 1319 0 l 650 0 l 650 297 m 650 411 l 650 898 l 511 898 l 319 411 l 650 411 "},"]":{"x_min":31.9375,"x_max":290.28125,"ha":386,"o":"m 31 -294 l 31 -194 l 175 -194 l 175 912 l 31 912 l 31 1012 l 290 1012 l 290 -294 l 31 -294 "},"А":{"x_min":23.609375,"x_max":906.953125,"ha":926,"o":"m 658 304 l 268 304 l 161 0 l 23 0 l 384 1012 l 551 1012 l 906 0 l 762 0 l 658 304 m 622 412 l 466 873 l 300 412 l 622 412 "},"Ы":{"x_min":109.71875,"x_max":1101.390625,"ha":1211,"o":"m 865 313 q 748 65 865 155 q 545 0 663 0 l 109 0 l 109 1012 l 238 1012 l 238 626 l 468 626 q 859 386 815 626 q 865 313 865 352 m 238 113 l 533 113 q 702 200 645 113 q 736 312 736 248 q 645 483 736 429 q 533 512 597 512 l 238 512 l 238 113 m 1101 1012 l 1101 0 l 970 0 l 970 1012 l 1101 1012 "},"Ҙ":{"x_min":66.671875,"x_max":862.5,"ha":926,"o":"m 356 445 l 356 559 l 479 559 q 652 643 580 559 q 698 750 698 698 q 598 895 698 851 q 472 920 544 920 q 230 784 273 920 q 219 715 219 752 l 97 715 q 268 991 98 916 q 468 1029 351 1029 q 777 898 686 1029 q 822 795 811 852 q 827 731 827 765 q 681 519 827 581 q 861 312 841 459 q 862 277 862 295 q 781 73 862 161 q 751 45 766 58 q 466 -31 650 -31 q 126 112 231 -31 q 66 322 68 191 l 188 322 l 193 269 q 241 166 202 212 q 475 81 312 81 q 661 125 598 81 q 731 245 722 168 q 733 265 733 255 q 662 391 733 333 q 506 445 595 445 l 356 445 "},"8":{"x_min":51.390625,"x_max":712.5,"ha":772,"o":"m 543 518 q 712 272 712 437 q 593 31 712 116 q 381 -31 505 -31 q 116 81 209 -31 q 51 273 51 162 q 219 518 51 437 q 97 647 119 580 q 86 722 86 679 q 198 933 86 859 q 381 984 275 984 q 625 879 543 984 q 677 722 677 812 q 615 570 677 627 l 570 534 q 543 518 558 526 m 381 876 q 229 795 270 876 l 215 759 l 211 720 q 295 584 211 623 q 381 566 333 566 q 534 645 493 566 q 552 719 552 679 q 462 861 552 823 q 381 876 427 876 m 381 463 q 204 375 258 463 q 176 270 176 329 q 268 104 176 156 q 379 76 315 76 q 559 166 505 76 q 587 270 587 212 q 494 437 587 384 q 381 463 445 463 "},"Ӝ":{"x_min":87.5,"x_max":1316.671875,"ha":1421,"o":"m 661 1211 l 661 1068 l 516 1068 l 516 1211 l 661 1211 m 886 1211 l 886 1068 l 741 1068 l 741 1211 l 886 1211 m 637 450 l 240 0 l 87 0 l 538 520 l 145 1012 l 306 1012 l 637 584 l 637 1012 l 766 1012 l 766 584 l 1097 1012 l 1258 1012 l 865 520 l 1316 0 l 1152 0 l 766 450 l 766 0 l 637 0 l 637 450 "},"R":{"x_min":129.171875,"x_max":943.0625,"ha":1003,"o":"m 258 436 l 258 0 l 129 0 l 129 1012 l 595 1012 q 888 845 831 1012 q 904 741 904 800 q 804 534 904 605 q 744 500 777 516 q 856 406 830 462 q 881 236 880 355 q 908 65 884 102 q 943 31 920 47 l 943 0 l 786 0 q 756 165 756 66 l 758 255 q 647 430 758 406 q 591 436 622 436 l 258 436 m 258 550 l 570 550 q 763 669 738 550 q 769 723 769 693 q 716 859 769 815 q 570 898 672 898 l 258 898 l 258 550 "},"o":{"x_min":50,"x_max":708.328125,"ha":772,"o":"m 377 748 q 668 569 588 748 q 708 352 708 479 q 566 22 708 120 q 379 -31 488 -31 q 95 133 179 -31 q 50 358 50 226 q 195 697 50 600 q 377 748 272 748 m 379 641 q 197 513 250 641 q 170 358 170 447 q 279 101 170 168 q 379 75 322 75 q 558 197 504 75 q 587 354 587 262 q 473 619 587 555 q 379 641 431 641 "},"5":{"x_min":48.609375,"x_max":712.5,"ha":772,"o":"m 661 984 l 661 863 l 251 863 l 212 588 q 394 648 294 648 q 650 527 561 648 q 712 320 712 443 q 591 41 712 141 q 375 -31 502 -31 q 129 61 219 -31 q 108 86 118 73 q 48 241 70 131 l 170 241 q 372 76 213 76 q 565 188 512 76 q 587 304 587 238 q 481 513 587 455 q 372 540 434 540 q 220 480 283 540 q 191 448 206 466 l 79 448 l 152 984 l 661 984 "},"Ң":{"x_min":115.28125,"x_max":894.453125,"ha":1003,"o":"m 763 461 l 245 461 l 245 0 l 115 0 l 115 1012 l 244 1012 l 244 575 l 763 575 l 763 1012 l 894 1012 l 894 0 l 763 0 l 763 461 "},"Ѕ":{"x_min":66.671875,"x_max":862.5,"ha":926,"o":"m 827 715 l 705 715 q 552 909 704 869 q 452 920 508 920 q 251 834 308 920 l 234 801 q 226 750 226 777 q 301 633 226 672 q 393 600 336 615 l 647 531 q 852 351 813 486 q 862 277 862 316 q 781 73 862 161 q 751 45 766 58 q 466 -31 650 -31 q 126 112 231 -31 q 66 322 68 191 l 188 322 l 193 269 q 241 166 202 212 q 475 81 312 81 q 661 125 598 81 q 731 245 722 168 q 733 265 733 255 q 580 419 733 370 l 547 429 l 295 495 q 97 731 97 547 q 241 981 97 904 q 456 1029 330 1029 q 788 875 701 1029 q 827 715 827 806 "},"�":{"x_min":48.609375,"x_max":1047.21875,"ha":1094,"o":"m 577 323 l 577 365 q 606 433 577 402 q 647 472 620 447 q 731 601 723 543 q 733 627 733 613 q 640 776 733 736 q 590 791 618 786 q 548 794 570 794 q 358 591 365 780 l 431 591 q 447 676 431 647 q 544 726 473 726 q 648 666 623 726 q 655 627 655 648 q 590 513 655 570 q 523 447 538 466 q 500 372 500 416 l 500 323 l 577 323 m 577 241 l 500 241 l 500 151 l 577 151 l 577 241 m 548 -19 l 48 480 l 548 979 l 1047 480 l 548 -19 "},"ҭ":{"x_min":83.328125,"x_max":600,"ha":689,"o":"m 83 727 l 600 727 l 600 622 l 400 622 l 400 0 l 283 0 l 283 622 l 83 622 l 83 727 "},",":{"x_min":120.828125,"x_max":266.671875,"ha":386,"o":"m 120 144 l 266 144 l 266 -22 q 120 -204 266 -204 l 120 -151 q 194 -105 180 -148 q 204 -25 204 -79 l 204 0 l 120 0 l 120 144 "},"d":{"x_min":36.109375,"x_max":687.5,"ha":772,"o":"m 687 1012 l 687 0 l 584 0 l 584 95 q 384 -30 504 -19 q 352 -31 369 -31 q 88 123 172 -31 q 36 365 36 222 q 159 683 36 579 q 348 748 238 748 q 572 636 498 748 l 572 1012 l 687 1012 m 368 640 q 193 526 250 640 q 158 402 165 473 q 156 358 156 380 q 254 113 156 188 q 369 76 304 76 q 538 190 484 76 q 572 355 572 259 q 472 608 572 537 q 368 640 426 640 "},"ғ":{"x_min":97.21875,"x_max":506.9375,"ha":597,"o":"m 97 727 l 506 727 l 506 622 l 213 622 l 213 0 l 97 0 l 97 727 "},"\"":{"x_min":72.21875,"x_max":423.609375,"ha":493,"o":"m 72 984 l 201 984 l 201 830 l 163 644 l 109 644 l 72 830 l 72 984 m 294 984 l 423 984 l 423 830 l 386 644 l 331 644 l 294 830 l 294 984 "},"ч":{"x_min":97.21875,"x_max":625,"ha":722,"o":"m 97 727 l 213 727 l 213 454 q 273 386 213 397 q 294 384 283 384 l 508 384 l 508 727 l 625 727 l 625 0 l 508 0 l 508 279 l 298 279 q 131 348 190 279 q 97 450 97 391 l 97 727 "},"Ӳ":{"x_min":36.109375,"x_max":859.71875,"ha":903,"o":"m 315 1276 l 472 1276 l 265 1068 l 182 1068 l 315 1276 m 557 1276 l 714 1276 l 507 1068 l 424 1068 l 557 1276 m 350 0 l 193 0 l 372 338 l 36 1012 l 193 1012 l 450 486 l 705 1012 l 859 1012 l 350 0 "},"ҫ":{"x_min":43.0625,"x_max":662.5,"ha":694,"o":"m 654 483 l 537 483 q 402 638 519 618 l 365 641 q 186 502 234 641 q 163 351 163 438 q 273 98 163 161 q 368 75 313 75 q 545 250 516 75 l 662 250 q 502 -4 647 59 q 365 -31 443 -31 q 100 113 186 -31 q 43 351 43 211 q 170 680 43 573 q 366 748 252 748 q 594 654 513 748 q 605 640 600 647 q 654 483 645 580 "},"ҙ":{"x_min":47.21875,"x_max":637.5,"ha":694,"o":"m 266 306 l 266 412 l 352 412 q 479 488 448 412 q 487 531 487 509 q 404 631 487 605 q 333 641 372 641 q 187 525 191 641 l 65 525 q 220 734 66 690 q 329 748 268 748 q 572 647 498 748 q 608 526 608 595 q 529 377 608 427 q 518 370 523 373 q 637 198 633 309 q 512 4 637 65 q 337 -31 440 -31 q 48 193 68 -31 q 47 216 47 204 l 169 216 q 202 123 177 151 q 347 75 248 75 q 501 144 465 75 q 511 188 511 165 q 456 279 511 240 q 369 306 418 306 l 266 306 "},"И":{"x_min":109.71875,"x_max":901.390625,"ha":1011,"o":"m 109 1012 l 231 1012 l 231 175 l 761 1012 l 901 1012 l 901 0 l 779 0 l 779 830 l 255 0 l 109 0 l 109 1012 "},"Љ":{"x_min":115.28125,"x_max":1419.453125,"ha":1500,"o":"m 713 0 l 712 898 l 400 898 q 395 518 400 593 q 176 8 369 65 q 115 0 148 0 l 115 130 q 258 415 229 130 q 269 787 270 541 l 269 1012 l 843 1012 l 843 576 l 1043 576 l 1129 572 q 1419 288 1388 540 q 1341 84 1419 166 q 1120 0 1262 0 l 713 0 m 1290 287 q 1191 447 1290 408 q 1108 462 1155 462 l 843 462 l 843 113 l 1108 113 q 1243 162 1198 113 q 1290 287 1290 212 "},"р":{"x_min":97.21875,"x_max":748.609375,"ha":800,"o":"m 97 -302 l 97 727 l 204 727 l 204 618 q 436 748 286 748 q 695 594 612 748 q 748 351 748 495 q 625 33 748 137 q 498 -26 570 -12 q 437 -31 469 -31 q 213 76 302 -31 l 213 -302 l 97 -302 m 416 640 q 247 523 301 640 q 213 358 213 454 q 309 112 213 184 q 416 76 355 76 q 591 188 533 76 q 627 354 627 258 q 529 604 627 530 q 416 640 480 640 "},"ӟ":{"x_min":47.21875,"x_max":637.5,"ha":694,"o":"m 297 926 l 297 783 l 152 783 l 152 926 l 297 926 m 522 926 l 522 783 l 377 783 l 377 926 l 522 926 m 266 306 l 266 412 l 352 412 q 479 488 448 412 q 487 531 487 509 q 404 631 487 605 q 333 641 372 641 q 187 525 191 641 l 65 525 q 220 734 66 690 q 329 748 268 748 q 572 647 498 748 q 608 526 608 595 q 529 377 608 427 q 518 370 523 373 q 637 198 633 309 q 512 4 637 65 q 337 -31 440 -31 q 48 193 68 -31 q 47 216 47 204 l 169 216 q 202 123 177 151 q 347 75 248 75 q 501 144 465 75 q 511 188 511 165 q 456 279 511 240 q 369 306 418 306 l 266 306 "},"т":{"x_min":83.328125,"x_max":600,"ha":689,"o":"m 83 727 l 600 727 l 600 622 l 400 622 l 400 0 l 283 0 l 283 622 l 83 622 l 83 727 "},"П":{"x_min":109.71875,"x_max":888.890625,"ha":999,"o":"m 758 898 l 240 898 l 240 0 l 109 0 l 109 1012 l 888 1012 l 888 0 l 758 0 l 758 898 "},"z":{"x_min":43.0625,"x_max":634.71875,"ha":694,"o":"m 615 727 l 615 625 l 183 101 l 634 101 l 634 0 l 43 0 l 43 104 l 477 626 l 72 626 l 72 727 l 615 727 "},"Ҵ":{"x_min":115.28125,"x_max":1022.21875,"ha":1075,"o":"m 763 113 l 763 1012 l 894 1012 l 894 102 l 1022 102 l 1022 -187 l 911 -187 l 911 0 l 115 0 l 115 1012 l 245 1012 l 245 113 l 763 113 "},"ұ":{"x_min":13.890625,"x_max":675,"ha":694,"o":"m 395 0 l 269 0 l 13 727 l 144 727 l 338 137 l 544 727 l 675 727 l 395 0 "},"и":{"x_min":97.21875,"x_max":690.28125,"ha":788,"o":"m 97 727 l 213 727 l 213 154 l 540 727 l 690 727 l 690 0 l 575 0 l 575 573 l 248 0 l 97 0 l 97 727 "},"~":{"x_min":104.171875,"x_max":705.5625,"ha":811,"o":"m 631 570 l 705 570 l 705 548 q 626 388 705 430 q 559 372 597 372 q 447 408 505 372 l 311 495 q 251 515 279 515 q 188 466 211 515 q 177 406 181 447 l 104 406 q 230 606 113 588 q 254 608 241 608 q 329 586 291 608 l 491 490 q 561 466 530 466 q 630 534 622 466 l 631 570 "},"Ӥ":{"x_min":109.71875,"x_max":901.390625,"ha":1011,"o":"m 461 1211 l 461 1068 l 316 1068 l 316 1211 l 461 1211 m 686 1211 l 686 1068 l 541 1068 l 541 1211 l 686 1211 m 109 1012 l 231 1012 l 231 175 l 761 1012 l 901 1012 l 901 0 l 779 0 l 779 830 l 255 0 l 109 0 l 109 1012 "},"Ӫ":{"x_min":52.78125,"x_max":1030.5625,"ha":1081,"o":"m 501 1211 l 501 1068 l 356 1068 l 356 1211 l 501 1211 m 726 1211 l 726 1068 l 581 1068 l 581 1211 l 726 1211 m 540 1029 q 916 858 781 1029 l 952 805 q 1030 490 1030 672 q 916 138 1030 284 q 855 75 888 102 q 541 -31 729 -31 q 173 130 309 -31 q 52 498 52 275 q 206 902 52 754 q 540 1029 338 1029 m 540 915 q 259 773 359 915 q 181 498 181 662 q 313 163 181 279 q 541 81 406 81 q 820 220 720 81 q 901 493 901 330 q 765 837 901 722 q 540 915 673 915 "},"[":{"x_min":88.890625,"x_max":347.21875,"ha":386,"o":"m 347 1012 l 347 912 l 204 912 l 204 -194 l 347 -194 l 347 -294 l 88 -294 l 88 1012 l 347 1012 "},"Ҝ":{"x_min":109.71875,"x_max":913.890625,"ha":926,"o":"m 238 0 l 109 0 l 109 1012 l 238 1012 l 238 575 l 743 1012 l 909 1012 l 337 520 l 913 0 l 761 0 l 238 450 l 238 0 "},"К":{"x_min":109.71875,"x_max":862.5,"ha":926,"o":"m 238 0 l 109 0 l 109 1012 l 238 1012 l 238 587 l 662 1012 l 816 1012 l 337 533 l 862 0 l 690 0 l 238 462 l 238 0 "},"%":{"x_min":40.28125,"x_max":1193.0625,"ha":1235,"o":"m 276 951 q 463 859 393 951 l 488 820 q 513 711 513 769 q 426 530 513 601 q 277 476 361 476 q 93 563 165 476 q 40 713 40 630 q 127 898 40 826 q 276 951 193 951 m 276 854 q 159 790 201 854 l 143 758 q 136 713 136 736 q 198 597 136 640 q 277 573 234 573 q 394 636 352 573 q 418 712 418 670 q 351 833 418 791 q 276 854 318 854 m 845 984 l 937 984 l 388 -27 l 297 -27 l 845 984 m 955 447 q 1144 355 1073 447 q 1193 208 1193 291 q 1105 27 1193 98 q 956 -26 1040 -26 q 772 61 844 -26 q 719 211 719 127 q 808 394 719 323 q 955 447 873 447 m 955 350 q 838 287 880 350 q 815 211 815 252 q 880 93 815 134 q 956 70 915 70 q 1073 133 1031 70 q 1097 208 1097 168 q 1030 329 1097 287 l 998 343 q 955 350 977 350 "},"P":{"x_min":126.390625,"x_max":856.953125,"ha":926,"o":"m 255 429 l 255 0 l 126 0 l 126 1012 l 544 1012 q 833 848 768 1012 q 856 715 856 791 q 769 501 856 580 q 573 429 688 429 l 255 429 m 255 543 l 525 543 q 708 645 666 543 q 722 720 722 679 q 612 884 722 845 l 565 895 q 525 898 545 898 l 255 898 l 255 543 "},"_":{"x_min":-30.5625,"x_max":802.78125,"ha":772,"o":"m 802 -175 l 802 -244 l -30 -244 l -30 -175 l 802 -175 "},"ѓ":{"x_min":97.21875,"x_max":506.9375,"ha":597,"o":"m 97 727 l 506 727 l 506 622 l 213 622 l 213 0 l 97 0 l 97 727 m 290 988 l 447 988 l 240 783 l 156 783 l 290 988 "},"ы":{"x_min":97.21875,"x_max":861.109375,"ha":958,"o":"m 213 727 l 213 473 l 370 473 l 448 469 q 670 247 662 441 q 670 231 670 240 q 575 40 670 105 q 438 0 516 0 l 97 0 l 97 727 l 213 727 m 213 105 l 386 105 q 543 204 531 105 q 544 227 544 215 q 429 365 544 350 q 386 368 409 368 l 213 368 l 213 105 m 861 727 l 861 0 l 745 0 l 745 727 l 861 727 "},"Ӏ":{"x_min":138.890625,"x_max":269.4375,"ha":386,"o":"m 269 1012 l 269 0 l 138 0 l 138 1012 l 269 1012 "},"ї":{"x_min":4.671875,"x_max":374.109375,"ha":386,"o":"m 149 983 l 149 840 l 4 840 l 4 983 l 149 983 m 374 983 l 374 840 l 229 840 l 229 983 l 374 983 m 247 727 l 247 0 l 130 0 l 130 727 l 247 727 "},"T":{"x_min":29.171875,"x_max":823.609375,"ha":849,"o":"m 491 898 l 491 0 l 362 0 l 362 898 l 29 898 l 29 1012 l 823 1012 l 823 898 l 491 898 "},"Њ":{"x_min":115.28125,"x_max":1350,"ha":1408,"o":"m 668 0 l 668 461 l 245 461 l 245 0 l 115 0 l 115 1012 l 244 1012 l 244 575 l 668 575 l 668 1012 l 797 1012 l 797 576 l 973 576 l 1059 572 q 1350 288 1319 540 q 1272 84 1350 166 q 1051 0 1193 0 l 668 0 m 1220 287 q 1122 447 1220 408 q 1038 462 1086 462 l 797 462 l 797 113 l 1038 113 q 1173 162 1129 113 q 1220 287 1220 212 "},"є":{"x_min":43.0625,"x_max":662.5,"ha":694,"o":"m 477 322 l 163 322 q 287 91 173 143 q 368 75 323 75 q 545 250 516 75 l 662 250 q 502 -4 647 59 q 365 -31 443 -31 q 100 113 186 -31 q 43 351 43 211 q 170 680 43 573 q 366 748 252 748 q 594 654 513 748 q 605 640 600 647 q 654 483 645 580 l 537 483 q 402 638 519 618 l 365 641 q 186 504 234 641 q 168 429 173 469 l 477 429 l 477 322 "},"j":{"x_min":-25,"x_max":212.5,"ha":308,"o":"m 97 727 l 212 727 l 212 -151 q 34 -302 212 -294 q 13 -302 25 -302 q -25 -298 -4 -302 l -25 -200 q 2 -201 -1 -201 q 90 -156 75 -201 q 97 -105 97 -137 l 97 727 m 212 1012 l 212 866 l 97 866 l 97 1012 l 212 1012 "},"1":{"x_min":141.671875,"x_max":481.9375,"ha":772,"o":"m 359 701 l 141 701 l 141 788 q 325 838 283 806 q 395 968 366 869 q 401 984 398 976 l 481 984 l 481 0 l 359 0 l 359 701 "},"ћ":{"x_min":25,"x_max":718.0625,"ha":789,"o":"m 452 626 q 280 512 330 626 q 255 381 255 455 l 255 380 l 256 0 l 141 0 l 141 827 l 25 827 l 25 916 l 141 916 l 141 1012 l 256 1012 l 256 916 l 494 916 l 494 827 l 256 827 l 255 606 q 422 722 329 702 q 488 727 448 727 q 697 625 643 727 q 718 530 718 584 l 718 529 l 716 0 l 602 0 l 602 483 q 555 593 602 559 q 452 626 511 626 "},"ҍ":{"x_min":97.21875,"x_max":677.78125,"ha":767,"o":"m 213 727 l 213 426 q 456 422 413 426 q 663 298 623 404 q 677 208 677 259 q 620 61 677 122 q 462 0 563 0 l 97 0 l 97 727 l 213 727 m 213 105 l 425 105 q 520 141 488 105 q 551 204 551 172 q 534 281 551 262 l 520 293 q 425 320 477 320 l 213 320 l 213 105 "},"<":{"x_min":62.5,"x_max":741.671875,"ha":811,"o":"m 62 275 l 62 370 l 741 658 l 741 548 l 194 325 l 741 97 l 741 -12 l 62 275 "},"Ц":{"x_min":109.71875,"x_max":981.953125,"ha":1029,"o":"m 758 113 l 758 1012 l 888 1012 l 888 102 l 981 102 l 981 -187 l 870 -187 l 870 0 l 109 0 l 109 1012 l 240 1012 l 240 113 l 758 113 "},"t":{"x_min":19.4375,"x_max":352.78125,"ha":386,"o":"m 352 727 l 352 633 l 233 633 l 233 134 q 263 73 233 81 q 297 69 276 69 q 352 75 331 69 l 352 -22 q 258 -31 298 -31 q 119 61 134 -31 q 118 83 118 70 l 118 633 l 19 633 l 19 727 l 118 727 l 118 927 l 233 927 l 233 727 l 352 727 "},"ӡ":{"x_min":47.21875,"x_max":637.5,"ha":694,"o":"m 266 306 l 266 412 l 352 412 q 479 488 448 412 q 487 531 487 509 q 404 631 487 605 q 333 641 372 641 q 187 525 191 641 l 65 525 q 220 734 66 690 q 329 748 268 748 q 572 647 498 748 q 608 526 608 595 q 529 377 608 427 q 518 370 523 373 q 637 198 633 309 q 512 4 637 65 q 337 -31 440 -31 q 48 193 68 -31 q 47 216 47 204 l 169 216 q 202 123 177 151 q 347 75 248 75 q 501 144 465 75 q 511 188 511 165 q 456 279 511 240 q 369 306 418 306 l 266 306 "},"Ү":{"x_min":18.0625,"x_max":918.0625,"ha":926,"o":"m 537 397 l 537 0 l 408 0 l 408 397 l 18 1012 l 177 1012 l 475 519 l 763 1012 l 918 1012 l 537 397 "},"Ф":{"x_min":88.890625,"x_max":1151.390625,"ha":1300,"o":"m 686 883 l 784 879 q 1140 612 1086 850 q 1151 506 1151 563 q 747 131 1151 148 q 686 130 720 130 l 686 0 l 554 0 l 554 130 q 216 211 325 130 q 88 506 88 304 q 372 866 88 800 q 541 883 447 883 q 554 883 547 883 l 554 1012 l 686 1012 l 686 883 m 686 244 q 948 334 861 244 q 1012 506 1012 400 q 812 754 1012 701 q 686 769 752 769 l 686 244 m 554 244 l 554 769 q 291 679 379 769 q 227 506 227 613 q 427 259 227 312 q 554 244 487 244 "},"ӹ":{"x_min":97.21875,"x_max":861.109375,"ha":958,"o":"m 467 926 l 467 783 l 322 783 l 322 926 l 467 926 m 692 926 l 692 783 l 547 783 l 547 926 l 692 926 m 213 727 l 213 473 l 370 473 l 448 469 q 670 247 662 441 q 670 231 670 240 q 575 40 670 105 q 438 0 516 0 l 97 0 l 97 727 l 213 727 m 213 105 l 386 105 q 543 204 531 105 q 544 227 544 215 q 429 365 544 350 q 386 368 409 368 l 213 368 l 213 105 m 861 727 l 861 0 l 745 0 l 745 727 l 861 727 "},"О":{"x_min":52.78125,"x_max":1030.5625,"ha":1081,"o":"m 540 1029 q 916 858 781 1029 l 952 805 q 1030 490 1030 672 q 916 138 1030 284 q 855 75 888 102 q 541 -31 729 -31 q 173 130 309 -31 q 52 498 52 275 q 206 902 52 754 q 540 1029 338 1029 m 540 915 q 259 773 359 915 q 181 498 181 662 q 313 163 181 279 q 541 81 406 81 q 820 220 720 81 q 901 493 901 330 q 765 837 901 722 q 540 915 673 915 "},"&":{"x_min":72.21875,"x_max":884.71875,"ha":926,"o":"m 684 463 l 795 463 q 715 209 795 333 l 884 0 l 733 0 l 647 108 q 540 18 579 41 q 356 -31 462 -31 q 118 81 195 -31 q 72 244 72 150 q 144 430 72 356 q 297 540 194 480 q 187 729 200 662 q 184 766 184 747 q 275 938 184 873 q 422 984 338 984 q 611 893 547 984 l 631 854 q 647 791 644 825 q 648 766 648 779 q 572 602 648 670 q 456 525 531 566 l 641 298 q 684 456 684 373 q 684 463 684 461 m 395 598 q 529 720 508 669 q 538 769 538 741 q 476 873 538 841 q 418 887 450 887 q 306 818 334 887 q 298 768 298 795 q 333 673 298 722 l 395 598 m 580 190 l 358 468 q 200 315 227 384 q 188 254 188 287 q 263 111 188 163 q 370 76 312 76 q 558 166 463 76 q 580 190 569 177 "},"Ҩ":{"x_min":66.671875,"x_max":940.28125,"ha":1003,"o":"m 919 698 l 787 698 q 713 851 766 802 q 513 915 638 912 q 251 755 336 915 q 195 495 195 651 q 327 150 195 259 q 525 81 409 81 q 747 188 676 81 q 761 212 755 200 q 806 369 791 270 l 940 369 q 523 -31 894 -31 q 213 86 327 -31 q 66 494 66 237 q 208 902 66 748 q 529 1029 322 1029 q 919 698 859 1029 "},"I":{"x_min":138.890625,"x_max":269.4375,"ha":386,"o":"m 269 1012 l 269 0 l 138 0 l 138 1012 l 269 1012 "},"G":{"x_min":61.109375,"x_max":984.71875,"ha":1081,"o":"m 984 534 l 984 -5 l 902 -5 l 870 129 q 525 -31 726 -31 q 181 126 312 -31 q 61 495 61 270 q 202 893 61 740 q 244 931 222 913 q 547 1029 362 1029 q 908 865 795 1029 q 970 705 954 797 l 838 705 q 677 891 809 841 q 545 915 619 915 q 263 770 362 915 q 190 502 190 662 q 275 211 190 327 q 297 184 286 197 q 552 81 397 84 q 802 193 711 81 q 870 393 870 276 l 870 420 l 562 420 l 562 534 l 984 534 "},"`":{"x_min":30.5625,"x_max":320.828125,"ha":463,"o":"m 187 1027 l 320 822 l 237 822 l 30 1027 l 187 1027 "},"Һ":{"x_min":115.28125,"x_max":769.453125,"ha":892,"o":"m 244 593 l 640 593 q 766 508 748 593 q 769 480 769 495 l 769 0 l 640 0 l 640 479 l 244 479 l 244 0 l 115 0 l 115 1012 l 244 1012 l 244 593 "},"ҡ":{"x_min":80.5625,"x_max":697.21875,"ha":694,"o":"m 195 727 l 195 419 l 504 727 l 652 727 l 275 366 l 697 0 l 554 0 l 195 300 l 195 0 l 80 0 l 80 727 l 195 727 "},"Ђ":{"x_min":38.890625,"x_max":997.21875,"ha":1064,"o":"m 994 0 q 941 -145 994 -98 q 900 -175 925 -161 q 763 -204 851 -204 l 762 -204 l 650 -205 l 650 -113 l 787 -113 q 866 -22 859 -100 l 866 -8 l 868 437 q 776 516 868 511 l 445 516 l 445 0 l 316 0 l 315 900 l 38 900 l 38 1011 l 719 1011 l 719 900 l 445 900 l 445 630 l 768 630 q 966 526 905 630 q 997 413 997 475 l 997 412 l 994 0 "},"я":{"x_min":19.4375,"x_max":656.953125,"ha":754,"o":"m 304 306 q 109 438 151 319 q 97 520 97 475 q 154 668 97 606 q 312 727 209 727 l 656 727 l 656 0 l 540 0 l 540 302 l 444 302 l 162 0 l 19 0 l 304 306 m 540 623 l 350 623 q 254 587 286 623 q 223 513 223 556 q 237 451 223 466 q 254 436 243 443 q 350 408 297 408 l 540 408 l 540 623 "},"ӛ":{"x_min":55.5,"x_max":712.4375,"ha":772,"o":"m 350 926 l 350 783 l 205 783 l 205 926 l 350 926 m 575 926 l 575 783 l 430 783 l 430 926 l 575 926 m 55 392 l 591 392 q 552 547 590 492 q 377 642 493 642 q 187 496 236 642 l 70 496 q 245 723 101 664 q 381 748 306 748 q 658 596 570 748 q 712 362 712 501 q 581 36 712 143 q 379 -31 498 -31 q 129 82 219 -31 q 84 160 101 117 q 55 392 55 236 m 588 297 l 180 297 q 179 289 179 294 q 261 115 179 178 q 380 75 313 75 q 555 179 498 75 q 588 297 583 229 "},"Ё":{"x_min":109.71875,"x_max":836.109375,"ha":926,"o":"m 238 461 l 238 113 l 836 113 l 836 0 l 109 0 l 109 1012 l 811 1012 l 811 898 l 238 898 l 238 575 l 790 575 l 790 461 l 238 461 m 420 1269 l 420 1126 l 276 1126 l 276 1269 l 420 1269 m 645 1269 l 645 1126 l 501 1126 l 501 1269 l 645 1269 "},";":{"x_min":152.78125,"x_max":298.609375,"ha":386,"o":"m 298 727 l 298 583 l 154 583 l 154 727 l 298 727 m 152 144 l 298 144 l 298 -22 q 152 -204 298 -204 l 152 -151 q 226 -105 212 -148 q 236 -25 236 -79 l 236 0 l 152 0 l 152 144 "},"Г":{"x_min":109.71875,"x_max":788.890625,"ha":849,"o":"m 238 0 l 109 0 l 109 1012 l 788 1012 l 788 898 l 238 898 l 238 0 "},"6":{"x_min":59.71875,"x_max":712.5,"ha":772,"o":"m 390 -31 q 59 448 59 -31 q 148 844 59 705 q 365 981 226 961 q 412 984 388 984 q 648 855 572 984 q 691 727 680 800 l 569 727 q 443 872 544 850 q 404 876 425 876 q 202 676 250 876 q 184 502 184 601 q 411 612 265 612 q 651 497 565 612 q 712 300 712 415 q 598 40 712 134 q 390 -31 512 -31 m 395 504 q 222 412 277 504 q 191 297 191 362 q 276 113 191 177 q 391 76 326 76 q 552 163 497 76 q 587 290 587 219 q 488 483 587 431 q 395 504 448 504 "},"Ь":{"x_min":109.71875,"x_max":865.28125,"ha":926,"o":"m 865 313 q 748 65 865 155 q 545 0 663 0 l 109 0 l 109 1012 l 238 1012 l 238 626 l 468 626 q 859 386 815 626 q 865 313 865 352 m 238 113 l 533 113 q 702 200 645 113 q 736 312 736 248 q 645 483 736 429 q 533 512 597 512 l 238 512 l 238 113 "},"n":{"x_min":97.21875,"x_max":676.390625,"ha":772,"o":"m 97 727 l 204 727 l 204 605 q 384 743 279 723 q 445 748 412 748 q 650 651 591 748 q 676 550 676 606 l 676 0 l 561 0 l 561 504 q 479 634 561 601 q 411 647 450 647 q 243 540 294 647 q 213 401 213 481 l 213 0 l 97 0 l 97 727 "},"ѝ":{"x_min":97.21875,"x_max":676.390625,"ha":772,"o":"m 97 727 l 213 727 l 213 154 l 540 727 l 676 727 l 676 0 l 561 0 l 561 573 l 234 0 l 97 0 l 97 727 m 398 988 l 531 783 l 448 783 l 241 988 l 398 988 "},"p":{"x_min":75,"x_max":726.390625,"ha":772,"o":"m 75 -302 l 75 727 l 181 727 l 181 618 q 413 748 263 748 q 673 594 590 748 q 726 351 726 495 q 602 33 726 137 q 476 -26 548 -12 q 415 -31 447 -31 q 191 76 280 -31 l 191 -302 l 75 -302 m 394 640 q 225 523 279 640 q 191 358 191 454 q 287 112 191 184 q 394 76 333 76 q 569 188 511 76 q 605 354 605 258 q 506 604 605 530 q 394 640 458 640 "},"ӓ":{"x_min":58.328125,"x_max":743.0625,"ha":772,"o":"m 333 926 l 333 783 l 188 783 l 188 926 l 333 926 m 558 926 l 558 783 l 413 783 l 413 926 l 558 926 m 743 68 l 743 -19 q 663 -31 694 -31 q 547 55 565 -31 q 544 75 545 65 q 297 -31 423 -30 q 84 72 144 -31 q 58 183 58 120 q 186 377 58 325 q 366 415 236 398 q 419 422 388 418 q 536 475 520 434 q 540 502 540 486 l 540 533 q 427 638 540 622 q 377 641 404 641 q 211 537 234 641 q 206 512 208 525 l 90 512 q 140 663 94 612 q 381 748 216 748 q 652 587 626 748 q 655 550 655 569 l 655 122 q 718 65 655 65 q 743 68 730 65 m 540 229 l 540 359 q 381 323 495 338 q 354 319 369 322 q 184 223 206 298 q 179 186 179 206 q 272 75 179 95 q 322 69 294 69 q 494 134 422 69 q 540 229 538 175 "},"Ӯ":{"x_min":36.109375,"x_max":859.71875,"ha":903,"o":"m 638 1165 l 638 1068 l 257 1068 l 257 1165 l 638 1165 m 350 0 l 193 0 l 372 338 l 36 1012 l 193 1012 l 450 486 l 705 1012 l 859 1012 l 350 0 "},"Ю":{"x_min":115.28125,"x_max":1330.5625,"ha":1433,"o":"m 409 461 l 245 461 l 245 0 l 115 0 l 115 1012 l 244 1012 l 244 575 l 412 575 q 618 959 441 843 q 868 1029 723 1029 q 1248 829 1127 1029 q 1330 490 1330 693 q 1216 138 1330 284 q 1155 75 1188 102 q 923 -29 1045 -18 q 873 -31 900 -31 q 502 152 627 -31 q 409 461 418 277 m 868 915 q 587 743 672 915 q 537 498 537 641 q 679 140 537 247 q 869 81 756 81 q 1148 248 1062 81 q 1201 493 1201 348 q 1050 863 1201 761 l 1005 888 q 868 915 944 915 "},"S":{"x_min":66.671875,"x_max":862.5,"ha":926,"o":"m 827 715 l 705 715 q 552 909 704 869 q 452 920 508 920 q 251 834 308 920 l 234 801 q 226 750 226 777 q 301 633 226 672 q 393 600 336 615 l 647 531 q 852 351 813 486 q 862 277 862 316 q 781 73 862 161 q 751 45 766 58 q 466 -31 650 -31 q 126 112 231 -31 q 66 322 68 191 l 188 322 l 193 269 q 241 166 202 212 q 475 81 312 81 q 661 125 598 81 q 731 245 722 168 q 733 265 733 255 q 580 419 733 370 l 547 429 l 295 495 q 97 731 97 547 q 241 981 97 904 q 456 1029 330 1029 q 788 875 701 1029 q 827 715 827 806 "},"/":{"x_min":-11.109375,"x_max":394.4375,"ha":386,"o":"m 318 1012 l 394 1012 l 65 -27 l -11 -27 l 318 1012 "},"ӈ":{"x_min":97.21875,"x_max":677.78125,"ha":772,"o":"m 97 727 l 213 727 l 213 429 l 561 429 l 561 727 l 677 727 l 677 0 l 561 0 l 561 323 l 213 323 l 213 0 l 97 0 l 97 727 "},"Ӭ":{"x_min":66.671875,"x_max":940.28125,"ha":1003,"o":"m 539 1211 l 539 1068 l 394 1068 l 394 1211 l 539 1211 m 764 1211 l 764 1068 l 619 1068 l 619 1211 l 764 1211 m 811 461 l 301 461 l 301 575 l 806 575 q 641 877 783 795 q 493 915 576 915 q 297 855 366 915 l 293 851 q 219 698 240 802 l 87 698 q 477 1029 147 1029 q 798 902 684 1029 q 940 494 940 748 q 793 86 940 237 q 483 -31 679 -31 q 66 369 112 -31 l 200 369 q 245 212 215 270 q 444 83 302 98 q 481 81 462 81 q 750 236 661 81 q 811 461 804 327 "},"y":{"x_min":27.78125,"x_max":663.890625,"ha":694,"o":"m 538 727 l 663 727 l 340 -152 q 261 -268 309 -231 q 152 -302 213 -302 q 75 -284 109 -302 l 75 -180 q 136 -188 112 -188 q 223 -133 198 -188 q 229 -118 226 -126 l 273 -2 l 27 727 l 151 727 l 337 161 l 538 727 "},"ђ":{"x_min":25,"x_max":718.0625,"ha":789,"o":"m 452 626 q 280 512 330 626 q 255 381 255 455 l 255 380 l 256 0 l 141 0 l 141 827 l 25 827 l 25 916 l 141 916 l 141 1012 l 256 1012 l 256 916 l 494 916 l 494 827 l 256 827 l 255 606 q 422 722 329 702 q 488 727 448 727 q 697 625 643 727 q 718 530 718 584 l 718 529 l 716 147 q 558 -150 706 -34 q 381 -226 463 -225 l 358 -225 l 358 -169 q 495 -100 423 -166 q 602 133 597 -4 l 602 483 q 555 593 602 559 q 452 626 511 626 "},"g":{"x_min":40.28125,"x_max":679.171875,"ha":772,"o":"m 572 727 l 679 727 l 679 119 q 622 -183 679 -94 q 602 -209 612 -197 q 384 -301 536 -293 q 354 -302 369 -302 q 93 -180 162 -302 q 63 -83 69 -137 l 181 -83 q 226 -166 190 -137 q 358 -205 276 -205 q 519 -137 470 -205 q 561 61 561 -80 l 561 98 q 377 -29 479 -15 l 340 -31 q 140 56 225 -31 q 131 65 136 61 q 40 351 40 172 q 158 673 40 563 q 350 748 237 748 q 572 622 486 748 l 572 727 m 362 641 q 188 516 240 641 q 161 358 161 450 q 269 100 161 165 q 363 75 309 75 q 536 202 487 75 q 561 354 561 266 q 447 622 561 562 q 362 641 409 641 "},"б":{"x_min":50,"x_max":708.328125,"ha":772,"o":"m 162 651 q 377 748 223 748 q 668 569 588 748 q 708 352 708 479 q 566 22 708 120 q 379 -31 488 -31 q 95 133 179 -31 q 50 358 50 226 q 225 931 50 822 q 287 958 254 950 l 472 994 q 543 1048 522 1006 q 550 1076 550 1062 l 652 1076 q 629 958 652 993 q 498 888 595 912 l 311 848 q 186 730 230 829 q 162 651 169 693 m 379 641 q 197 513 250 641 q 170 358 170 447 q 279 101 170 168 q 379 75 322 75 q 558 197 504 75 q 587 354 587 262 q 473 619 587 555 q 379 641 431 641 "},"J":{"x_min":23.609375,"x_max":591.671875,"ha":694,"o":"m 462 1012 l 591 1012 l 591 252 q 466 6 591 80 q 305 -31 398 -31 q 61 87 133 -31 q 23 236 23 151 l 23 325 l 155 325 l 155 259 q 268 80 155 105 q 306 76 286 76 q 430 138 387 76 q 462 300 462 186 l 462 1012 "},"у":{"x_min":27.78125,"x_max":663.890625,"ha":694,"o":"m 538 727 l 663 727 l 340 -152 q 261 -268 309 -231 q 152 -302 213 -302 q 75 -284 109 -302 l 75 -180 q 136 -188 112 -188 q 223 -133 198 -188 q 229 -118 226 -126 l 273 -2 l 27 727 l 151 727 l 337 161 l 538 727 "},"Ј":{"x_min":23.609375,"x_max":591.671875,"ha":694,"o":"m 462 1012 l 591 1012 l 591 252 q 466 6 591 80 q 305 -31 398 -31 q 61 87 133 -31 q 23 236 23 151 l 23 325 l 155 325 l 155 259 q 268 80 155 105 q 306 76 286 76 q 430 138 387 76 q 462 300 462 186 l 462 1012 "},"ӌ":{"x_min":95.828125,"x_max":600,"ha":706,"o":"m 95 727 l 212 727 l 212 415 l 483 415 l 483 727 l 600 727 l 600 0 l 483 0 l 483 309 l 212 309 q 104 355 123 309 q 95 411 95 376 l 95 727 "},"Ұ":{"x_min":18.0625,"x_max":918.0625,"ha":926,"o":"m 537 397 l 537 0 l 408 0 l 408 397 l 18 1012 l 177 1012 l 475 519 l 763 1012 l 918 1012 l 537 397 "},"Ӵ":{"x_min":109.71875,"x_max":790.28125,"ha":900,"o":"m 403 1211 l 403 1068 l 258 1068 l 258 1211 l 403 1211 m 628 1211 l 628 1068 l 483 1068 l 483 1211 l 628 1211 m 661 381 l 338 381 q 140 486 201 381 q 109 600 109 537 l 109 1012 l 238 1012 l 238 575 q 344 495 252 501 l 661 495 l 661 1012 l 790 1012 l 790 0 l 661 0 l 661 381 "},"ҧ":{"x_min":97.21875,"x_max":676.390625,"ha":772,"o":"m 97 727 l 676 727 l 676 0 l 559 0 l 559 622 l 213 622 l 213 0 l 97 0 l 97 727 "},"D":{"x_min":123.609375,"x_max":926.390625,"ha":1003,"o":"m 123 0 l 123 1012 l 513 1012 q 850 829 740 1012 l 880 769 q 926 506 926 656 q 765 84 926 216 q 513 0 663 0 l 123 0 m 252 113 l 491 113 q 784 365 733 113 q 797 505 797 427 q 563 891 797 847 q 491 898 529 898 l 252 898 l 252 113 "},"ґ":{"x_min":97.21875,"x_max":506.9375,"ha":597,"o":"m 97 727 l 390 727 l 390 873 l 506 873 l 506 622 l 213 622 l 213 0 l 97 0 l 97 727 "},"ӳ":{"x_min":27.78125,"x_max":663.890625,"ha":694,"o":"m 212 991 l 369 991 l 162 783 l 79 783 l 212 991 m 454 991 l 611 991 l 404 783 l 321 783 l 454 991 m 538 727 l 663 727 l 340 -152 q 261 -268 309 -231 q 152 -302 213 -302 q 75 -284 109 -302 l 75 -180 q 136 -188 112 -188 q 223 -133 198 -188 q 229 -118 226 -126 l 273 -2 l 27 727 l 151 727 l 337 161 l 538 727 "},"ц":{"x_min":97.21875,"x_max":761.109375,"ha":803,"o":"m 97 0 l 97 727 l 213 727 l 213 105 l 559 105 l 559 727 l 676 727 l 676 88 l 761 88 l 761 -166 l 663 -166 l 663 0 l 97 0 "},"Л":{"x_min":45.828125,"x_max":825,"ha":935,"o":"m 694 898 l 330 898 q 326 513 330 588 q 100 -6 300 43 q 45 -13 73 -13 l 45 116 q 188 416 161 116 q 200 786 201 543 l 200 1012 l 825 1012 l 825 0 l 694 0 l 694 898 "},"$":{"x_min":45.734375,"x_max":719.453125,"ha":772,"o":"m 337 1069 l 419 1069 l 419 994 q 659 852 594 981 q 688 734 686 800 q 688 720 688 727 l 579 720 q 498 875 577 827 q 437 895 470 890 q 419 897 429 897 l 419 551 q 601 484 558 508 q 719 270 719 418 q 625 41 719 126 q 591 16 609 27 q 419 -31 523 -23 l 419 -175 l 337 -175 l 337 -31 q 63 144 123 -18 q 45 265 44 198 q 45 288 45 277 l 155 288 q 184 152 165 186 q 190 143 187 148 q 337 63 238 76 l 337 441 q 162 513 208 480 q 63 716 63 584 q 258 977 63 919 q 337 994 294 988 l 337 1069 m 337 562 l 337 895 q 180 772 204 877 q 176 730 176 752 q 337 562 176 605 m 419 429 l 419 63 q 547 115 504 73 q 605 254 605 170 q 540 380 605 338 q 419 429 500 405 "},"w":{"x_min":8.328125,"x_max":983.328125,"ha":1003,"o":"m 769 0 l 637 0 l 490 570 l 350 0 l 219 0 l 8 727 l 136 727 l 284 161 l 423 727 l 565 727 l 708 161 l 852 727 l 983 727 l 769 0 "},"\\":{"x_min":-11.109375,"x_max":394.4375,"ha":386,"o":"m 65 1012 l 394 -27 l 318 -27 l -11 1012 l 65 1012 "},"о":{"x_min":50,"x_max":708.328125,"ha":772,"o":"m 377 748 q 668 569 588 748 q 708 352 708 479 q 566 22 708 120 q 379 -31 488 -31 q 95 133 179 -31 q 50 358 50 226 q 195 697 50 600 q 377 748 272 748 m 379 641 q 197 513 250 641 q 170 358 170 447 q 279 101 170 168 q 379 75 322 75 q 558 197 504 75 q 587 354 587 262 q 473 619 587 555 q 379 641 431 641 "},"Д":{"x_min":47.21875,"x_max":1080.5625,"ha":1128,"o":"m 363 113 l 823 113 l 823 898 l 459 898 l 459 581 q 363 113 451 251 m 175 102 q 319 451 293 156 q 329 790 330 570 l 329 1012 l 954 1012 l 954 102 l 1080 102 l 1080 -187 l 969 -187 l 969 0 l 158 0 l 158 -187 l 47 -187 l 47 102 l 175 102 "},"ъ":{"x_min":79.171875,"x_max":906.953125,"ha":1019,"o":"m 333 0 l 333 622 l 79 622 l 79 727 l 450 727 l 450 473 l 606 473 l 684 469 q 906 247 898 441 q 906 231 906 240 q 811 40 906 105 q 675 0 752 0 l 333 0 m 450 105 l 622 105 q 779 204 768 105 q 780 227 780 215 q 665 365 780 350 q 622 368 645 368 l 450 368 l 450 105 "},"Ӛ":{"x_min":52.78125,"x_max":1030.5625,"ha":1081,"o":"m 499 1279 l 499 1136 l 354 1136 l 354 1279 l 499 1279 m 724 1279 l 724 1136 l 579 1136 l 579 1279 l 724 1279 m 65 627 q 276 956 105 850 q 540 1029 390 1029 q 916 858 781 1029 l 952 805 q 1030 490 1030 672 q 916 138 1030 284 q 855 75 888 102 q 541 -31 729 -31 q 173 130 309 -31 q 52 498 52 275 q 54 534 52 522 l 900 534 q 747 852 887 751 q 540 915 659 915 q 259 773 359 915 q 195 627 215 711 l 65 627 m 897 420 l 186 420 q 352 134 212 225 q 541 81 434 81 q 820 220 720 81 q 897 420 881 304 "},"Ҭ":{"x_min":29.171875,"x_max":823.609375,"ha":849,"o":"m 491 898 l 491 0 l 362 0 l 362 898 l 29 898 l 29 1012 l 823 1012 l 823 898 l 491 898 "},"ӣ":{"x_min":97.21875,"x_max":690.28125,"ha":788,"o":"m 577 880 l 577 783 l 196 783 l 196 880 l 577 880 m 97 727 l 213 727 l 213 154 l 540 727 l 690 727 l 690 0 l 575 0 l 575 573 l 248 0 l 97 0 l 97 727 "},"C":{"x_min":66.671875,"x_max":940.28125,"ha":1003,"o":"m 919 698 l 787 698 q 713 851 766 802 q 513 915 638 912 q 251 755 336 915 q 195 495 195 651 q 327 150 195 259 q 525 81 409 81 q 747 188 676 81 q 761 212 755 200 q 806 369 791 270 l 940 369 q 523 -31 894 -31 q 213 86 327 -31 q 66 494 66 237 q 208 902 66 748 q 529 1029 322 1029 q 919 698 859 1029 "},"Ӂ":{"x_min":87.5,"x_max":1316.671875,"ha":1421,"o":"m 492 1255 l 574 1255 q 702 1164 585 1164 q 827 1243 809 1164 q 828 1255 828 1248 l 910 1255 q 699 1068 895 1068 q 522 1147 580 1068 q 492 1255 494 1186 m 637 450 l 240 0 l 87 0 l 538 520 l 145 1012 l 306 1012 l 637 584 l 637 1012 l 766 1012 l 766 584 l 1097 1012 l 1258 1012 l 865 520 l 1316 0 l 1152 0 l 766 450 l 766 0 l 637 0 l 637 450 "},"!":{"x_min":172.21875,"x_max":288.890625,"ha":386,"o":"m 288 1012 l 288 543 l 258 233 l 204 233 l 173 543 l 173 1012 l 288 1012 m 288 144 l 288 0 l 172 0 l 172 144 l 288 144 "},"Й":{"x_min":109.71875,"x_max":901.390625,"ha":1011,"o":"m 109 1012 l 231 1012 l 231 175 l 761 1012 l 901 1012 l 901 0 l 779 0 l 779 830 l 255 0 l 109 0 l 109 1012 m 295 1283 l 377 1283 q 505 1191 388 1191 q 630 1270 612 1191 q 631 1283 631 1276 l 713 1283 q 502 1095 698 1095 q 325 1175 383 1095 q 295 1283 297 1213 "},"Ҕ":{"x_min":125,"x_max":804.171875,"ha":849,"o":"m 254 0 l 125 0 l 125 1012 l 804 1012 l 804 898 l 254 898 l 254 0 "},"X":{"x_min":30.5625,"x_max":901.390625,"ha":926,"o":"m 543 519 l 901 0 l 741 0 l 465 422 l 187 0 l 30 0 l 388 519 l 52 1012 l 209 1012 l 469 615 l 730 1012 l 884 1012 l 543 519 "},"Б":{"x_min":109.71875,"x_max":865.28125,"ha":926,"o":"m 865 302 q 800 98 865 180 q 787 84 793 91 q 566 0 708 0 l 109 0 l 109 1012 l 788 1012 l 788 898 l 238 898 l 238 604 l 488 604 q 865 316 858 604 q 865 302 865 309 m 238 113 l 554 113 q 688 162 644 113 q 736 301 733 215 q 688 441 736 388 q 554 490 644 490 l 238 490 l 238 113 "},"ҝ":{"x_min":80.5625,"x_max":697.21875,"ha":694,"o":"m 195 727 l 195 419 l 504 727 l 652 727 l 275 366 l 697 0 l 554 0 l 195 300 l 195 0 l 80 0 l 80 727 l 195 727 "},"ҳ":{"x_min":23.609375,"x_max":656.953125,"ha":694,"o":"m 405 376 l 656 0 l 522 0 l 340 279 l 155 0 l 23 0 l 280 370 l 37 727 l 169 727 l 344 463 l 519 727 l 650 727 l 405 376 "},"г":{"x_min":97.21875,"x_max":527.78125,"ha":597,"o":"m 97 727 l 527 727 l 527 622 l 213 622 l 213 0 l 97 0 l 97 727 "},"х":{"x_min":23.609375,"x_max":656.953125,"ha":694,"o":"m 405 376 l 656 0 l 522 0 l 340 279 l 155 0 l 23 0 l 280 370 l 37 727 l 169 727 l 344 463 l 519 727 l 650 727 l 405 376 "},"}":{"x_min":40.28125,"x_max":363.890625,"ha":464,"o":"m 40 -294 l 40 -204 l 62 -204 q 144 -166 129 -204 q 151 -111 151 -147 l 151 140 q 265 358 151 306 q 151 577 151 411 l 151 829 q 115 913 151 898 q 62 922 97 922 l 40 922 l 40 1012 l 105 1012 q 250 900 220 1012 q 258 830 258 868 l 258 598 q 308 430 258 468 q 363 406 329 413 l 363 311 q 270 231 291 295 q 258 119 258 193 l 258 -112 q 156 -287 258 -255 q 105 -294 133 -294 l 40 -294 "},"Ч":{"x_min":109.71875,"x_max":790.28125,"ha":900,"o":"m 661 381 l 338 381 q 140 486 201 381 q 109 600 109 537 l 109 1012 l 238 1012 l 238 575 q 344 495 252 501 l 661 495 l 661 1012 l 790 1012 l 790 0 l 661 0 l 661 381 "},"N":{"x_min":105.5625,"x_max":897.21875,"ha":1003,"o":"m 897 1012 l 897 0 l 751 0 l 227 820 l 227 0 l 105 0 l 105 1012 l 245 1012 l 775 184 l 775 1012 l 897 1012 "},"Ӗ":{"x_min":109.71875,"x_max":836.109375,"ha":926,"o":"m 266 1255 l 348 1255 q 476 1164 359 1164 q 601 1243 583 1164 q 602 1255 602 1248 l 684 1255 q 473 1068 669 1068 q 296 1147 354 1068 q 266 1255 268 1186 m 238 461 l 238 113 l 836 113 l 836 0 l 109 0 l 109 1012 l 811 1012 l 811 898 l 238 898 l 238 575 l 790 575 l 790 461 l 238 461 "},"2":{"x_min":47.21875,"x_max":709.71875,"ha":772,"o":"m 394 984 q 651 873 562 984 l 677 831 q 709 695 709 770 q 501 398 709 512 l 362 323 q 202 181 236 250 q 184 120 190 154 l 702 120 l 702 0 l 47 0 q 126 270 56 177 q 323 426 184 347 l 451 498 q 584 693 584 575 q 501 847 584 793 q 390 877 452 877 q 230 798 286 877 l 220 781 q 191 643 197 737 l 69 643 q 122 856 73 781 q 394 984 205 984 "},"⌀":{"x_min":54.171875,"x_max":1084.71875,"ha":1143,"o":"m 902 769 l 294 155 q 575 52 413 52 q 881 180 754 52 q 1008 486 1008 306 q 902 769 1008 648 m 243 208 l 852 818 q 575 919 731 919 q 268 791 395 919 l 229 747 q 141 486 141 631 q 243 208 141 329 m 1033 998 l 1083 950 l 956 823 q 1084 486 1084 680 q 944 133 1084 281 q 604 -22 805 -11 q 575 -23 590 -23 q 240 102 381 -23 l 105 -33 l 54 18 l 188 154 q 65 486 65 295 q 205 838 65 690 q 545 994 344 983 q 575 995 559 995 q 908 872 763 995 l 1033 998 "},"М":{"x_min":109.71875,"x_max":1062.5,"ha":1172,"o":"m 655 0 l 519 0 l 231 848 l 231 0 l 109 0 l 109 1012 l 288 1012 l 588 130 l 883 1012 l 1062 1012 l 1062 0 l 940 0 l 940 848 l 655 0 "},"ь":{"x_min":97.21875,"x_max":670.828125,"ha":767,"o":"m 213 727 l 213 473 l 370 473 l 448 469 q 670 247 662 441 q 670 231 670 240 q 575 40 670 105 q 438 0 516 0 l 97 0 l 97 727 l 213 727 m 213 105 l 386 105 q 543 204 531 105 q 544 227 544 215 q 429 365 544 350 q 386 368 409 368 l 213 368 l 213 105 "},"Ҍ":{"x_min":109.71875,"x_max":865.28125,"ha":926,"o":"m 865 288 q 787 84 865 166 q 566 0 708 0 l 109 0 l 109 1012 l 238 1012 l 238 576 l 488 576 l 575 572 q 865 288 834 540 m 736 287 q 637 447 736 408 q 554 462 601 462 l 238 462 l 238 113 l 554 113 q 688 162 644 113 q 736 287 736 212 "},"Җ":{"x_min":87.5,"x_max":1316.671875,"ha":1421,"o":"m 637 450 l 240 0 l 87 0 l 538 520 l 140 1012 l 306 1012 l 637 584 l 637 1012 l 766 1012 l 766 584 l 1097 1012 l 1263 1012 l 865 520 l 1316 0 l 1163 0 l 766 450 l 766 0 l 637 0 l 637 450 "},"Ў":{"x_min":36.109375,"x_max":859.71875,"ha":903,"o":"m 350 0 l 193 0 l 372 338 l 36 1012 l 193 1012 l 450 486 l 705 1012 l 859 1012 l 350 0 m 238 1255 l 320 1255 q 448 1163 330 1163 q 573 1243 555 1163 q 575 1255 575 1248 l 656 1255 q 445 1068 641 1068 q 268 1147 326 1068 q 238 1255 240 1186 "},"в":{"x_min":97.21875,"x_max":650,"ha":725,"o":"m 650 208 q 559 33 650 90 q 434 0 506 0 l 97 0 l 97 727 l 401 727 q 556 677 502 727 q 612 544 612 626 q 516 384 612 431 q 647 245 631 340 q 650 208 650 227 m 213 426 l 350 426 q 455 451 420 426 q 493 498 488 477 q 495 522 495 508 q 465 588 495 563 q 455 597 461 593 q 350 623 422 623 l 213 623 l 213 426 m 213 105 l 397 105 q 493 141 461 105 q 523 215 523 172 q 509 277 523 262 l 493 293 q 397 320 450 320 l 213 320 l 213 105 "},"ҽ":{"x_min":55.5625,"x_max":712.5,"ha":772,"o":"m 712 325 l 176 325 q 215 169 177 225 q 390 75 275 75 q 580 220 531 75 l 697 220 q 522 -6 666 52 q 386 -31 461 -31 q 109 120 197 -31 q 55 354 55 215 q 186 680 55 573 q 388 748 269 748 q 638 634 548 748 q 683 556 666 600 q 712 325 712 480 m 179 419 l 587 419 q 588 427 588 422 q 506 601 588 538 q 387 641 454 641 q 212 537 269 641 q 179 419 184 487 "},"С":{"x_min":66.671875,"x_max":940.28125,"ha":1003,"o":"m 919 698 l 787 698 q 713 851 766 802 q 513 915 638 912 q 251 755 336 915 q 195 495 195 651 q 327 150 195 259 q 525 81 409 81 q 747 188 676 81 q 761 212 755 200 q 806 369 791 270 l 940 369 q 523 -31 894 -31 q 213 86 327 -31 q 66 494 66 237 q 208 902 66 748 q 529 1029 322 1029 q 919 698 859 1029 "},"њ":{"x_min":97.21875,"x_max":1134.71875,"ha":1181,"o":"m 677 430 l 834 430 q 1094 354 1031 430 q 1126 286 1116 326 q 1131 256 1129 272 q 1134 216 1134 231 l 1134 215 q 1059 55 1134 115 q 1038 40 1050 48 q 902 0 979 0 l 561 0 l 561 323 l 213 323 l 213 0 l 97 0 l 97 727 l 213 727 l 213 429 l 561 429 l 561 727 l 677 727 l 677 430 m 677 105 l 850 105 q 995 152 968 105 q 1006 187 1004 166 l 1008 211 q 951 309 1008 287 l 904 320 l 893 322 q 850 325 868 325 l 677 325 l 677 105 "},"Ӓ":{"x_min":23.609375,"x_max":906.953125,"ha":926,"o":"m 425 1211 l 425 1068 l 280 1068 l 280 1211 l 425 1211 m 650 1211 l 650 1068 l 505 1068 l 505 1211 l 650 1211 m 658 304 l 268 304 l 161 0 l 23 0 l 384 1012 l 551 1012 l 906 0 l 762 0 l 658 304 m 622 412 l 466 873 l 300 412 l 622 412 "},"s":{"x_min":47.21875,"x_max":637.5,"ha":694,"o":"m 608 525 l 486 525 q 340 641 481 641 q 194 573 226 641 q 186 531 186 554 q 277 438 186 469 q 320 427 297 433 l 431 401 q 627 265 595 362 q 637 198 637 236 q 512 4 637 65 q 337 -31 440 -31 q 48 193 68 -31 q 47 216 47 204 l 169 216 q 202 123 177 151 q 347 75 248 75 q 502 140 463 75 q 516 188 516 162 q 441 279 516 252 l 404 290 l 295 316 q 87 427 130 356 q 65 526 65 466 q 181 713 65 655 q 344 748 250 748 q 594 608 545 748 q 608 525 608 570 "},"?":{"x_min":106.9375,"x_max":706.953125,"ha":772,"o":"m 458 276 l 333 276 l 333 352 q 372 473 333 422 q 444 550 395 504 q 477 579 454 558 q 581 762 580 670 q 497 901 581 859 l 454 915 q 404 920 430 920 q 248 840 290 920 q 225 704 225 793 l 106 704 q 356 1026 106 997 q 411 1029 383 1029 q 663 913 586 1029 l 686 872 q 706 762 706 822 q 636 583 706 665 q 568 513 609 551 q 466 395 480 433 q 458 341 458 375 l 458 276 m 458 144 l 458 0 l 333 0 l 333 144 l 458 144 "},"c":{"x_min":43.0625,"x_max":662.5,"ha":694,"o":"m 654 483 l 537 483 q 402 638 519 618 l 365 641 q 186 502 234 641 q 163 351 163 438 q 273 98 163 161 q 368 75 313 75 q 545 250 516 75 l 662 250 q 502 -4 647 59 q 365 -31 443 -31 q 100 113 186 -31 q 43 351 43 211 q 170 680 43 573 q 366 748 252 748 q 594 654 513 748 q 605 640 600 647 q 654 483 645 580 "},"ҹ":{"x_min":95.828125,"x_max":600,"ha":706,"o":"m 95 727 l 212 727 l 212 415 l 483 415 l 483 727 l 600 727 l 600 0 l 483 0 l 483 309 l 212 309 q 104 355 123 309 q 95 411 95 376 l 95 727 "},"н":{"x_min":97.21875,"x_max":677.78125,"ha":775,"o":"m 97 727 l 213 727 l 213 429 l 561 429 l 561 727 l 677 727 l 677 0 l 561 0 l 561 323 l 213 323 l 213 0 l 97 0 l 97 727 "},"(":{"x_min":101.390625,"x_max":404.171875,"ha":463,"o":"m 327 1012 l 404 1012 q 215 416 231 734 q 213 359 213 387 q 383 -259 213 36 q 404 -294 393 -277 l 327 -294 q 119 177 170 -88 q 101 359 101 272 q 230 856 101 608 q 327 1012 273 941 "},"◊":{"x_min":22.21875,"x_max":641.671875,"ha":679,"o":"m 375 1033 l 641 516 l 375 0 l 288 0 l 22 516 l 288 1033 l 375 1033 m 333 83 l 555 516 l 333 950 l 109 516 l 333 83 "},"м":{"x_min":97.21875,"x_max":761.109375,"ha":858,"o":"m 97 727 l 241 727 l 429 275 l 616 727 l 761 727 l 761 0 l 644 0 l 644 504 l 463 55 l 394 55 l 213 504 l 213 0 l 97 0 l 97 727 "},"Қ":{"x_min":109.71875,"x_max":913.890625,"ha":926,"o":"m 238 0 l 109 0 l 109 1012 l 238 1012 l 238 575 l 743 1012 l 909 1012 l 337 520 l 913 0 l 761 0 l 238 450 l 238 0 "},":":{"x_min":152.78125,"x_max":297.21875,"ha":386,"o":"m 297 144 l 297 0 l 152 0 l 152 144 l 297 144 m 297 727 l 297 583 l 152 583 l 152 727 l 297 727 "},"з":{"x_min":47.21875,"x_max":637.5,"ha":694,"o":"m 266 306 l 266 412 l 352 412 q 479 488 448 412 q 487 531 487 509 q 404 631 487 605 q 333 641 372 641 q 187 525 191 641 l 65 525 q 220 734 66 690 q 329 748 268 748 q 572 647 498 748 q 608 526 608 595 q 529 377 608 427 q 518 370 523 373 q 637 198 633 309 q 512 4 637 65 q 337 -31 440 -31 q 48 193 68 -31 q 47 216 47 204 l 169 216 q 202 123 177 151 q 347 75 248 75 q 501 144 465 75 q 511 188 511 165 q 456 279 511 240 q 369 306 418 306 l 266 306 "},"Ѝ":{"x_min":105.5625,"x_max":897.21875,"ha":1003,"o":"m 105 1012 l 227 1012 l 227 184 l 756 1012 l 897 1012 l 897 0 l 775 0 l 775 820 l 251 0 l 105 0 l 105 1012 m 513 1273 l 647 1068 l 563 1068 l 356 1273 l 513 1273 "},"Ґ":{"x_min":125,"x_max":804.171875,"ha":849,"o":"m 254 0 l 125 0 l 125 1012 l 675 1012 l 675 1145 l 804 1145 l 804 898 l 254 898 l 254 0 "},"і":{"x_min":91.671875,"x_max":208.328125,"ha":308,"o":"m 208 727 l 208 0 l 93 0 l 93 727 l 208 727 m 208 1012 l 208 866 l 91 866 l 91 1012 l 208 1012 "},"V":{"x_min":41.671875,"x_max":895.828125,"ha":926,"o":"m 544 0 l 405 0 l 41 1012 l 180 1012 l 477 155 l 758 1012 l 895 1012 l 544 0 "},"ӄ":{"x_min":80.5625,"x_max":697.21875,"ha":694,"o":"m 195 727 l 195 419 l 504 727 l 652 727 l 275 366 l 697 0 l 554 0 l 195 300 l 195 0 l 80 0 l 80 727 l 195 727 "},"ӯ":{"x_min":27.78125,"x_max":663.890625,"ha":694,"o":"m 536 880 l 536 783 l 155 783 l 155 880 l 536 880 m 538 727 l 663 727 l 340 -152 q 261 -268 309 -231 q 152 -302 213 -302 q 75 -284 109 -302 l 75 -180 q 136 -188 112 -188 q 223 -133 198 -188 q 229 -118 226 -126 l 273 -2 l 27 727 l 151 727 l 337 161 l 538 727 "},"У":{"x_min":36.109375,"x_max":859.71875,"ha":903,"o":"m 350 0 l 193 0 l 372 338 l 36 1012 l 193 1012 l 450 486 l 705 1012 l 859 1012 l 350 0 "},"ҥ":{"x_min":97.21875,"x_max":970.828125,"ha":1061,"o":"m 677 0 l 561 0 l 561 323 l 213 323 l 213 0 l 97 0 l 97 727 l 213 727 l 213 429 l 561 429 l 561 727 l 970 727 l 970 622 l 677 622 l 677 0 "},"@":{"x_min":47.21875,"x_max":1320.828125,"ha":1410,"o":"m 923 695 l 1038 695 l 913 306 q 897 237 897 258 q 937 181 897 200 q 966 176 951 176 q 1129 276 1055 176 q 1200 495 1200 375 q 1065 786 1200 662 q 731 922 927 913 q 711 922 722 922 q 350 780 506 922 l 302 733 q 165 379 165 576 q 311 48 165 183 q 686 -90 461 -90 q 954 -45 795 -90 l 993 -138 q 679 -197 837 -197 q 247 -48 429 -197 q 51 294 77 90 q 47 358 47 326 q 179 752 47 572 q 266 850 218 806 q 626 1020 416 986 q 729 1029 677 1029 q 1130 888 959 1029 q 1316 570 1291 758 q 1320 512 1320 541 q 1201 202 1320 344 q 943 79 1095 79 q 790 186 809 79 q 593 86 698 86 q 413 181 479 86 q 366 340 366 250 q 476 608 366 491 q 723 725 583 723 q 893 604 840 725 l 923 695 m 715 636 q 554 537 623 636 q 491 338 491 450 q 556 198 491 245 q 629 175 590 175 q 770 265 709 175 q 838 448 816 331 q 845 502 844 479 l 843 538 q 762 627 827 605 q 715 636 740 636 "},"ү":{"x_min":13.890625,"x_max":675,"ha":694,"o":"m 395 0 l 269 0 l 13 727 l 144 727 l 338 137 l 544 727 l 675 727 l 395 0 "},"i":{"x_min":91.671875,"x_max":208.328125,"ha":308,"o":"m 208 727 l 208 0 l 93 0 l 93 727 l 208 727 m 208 1012 l 208 866 l 91 866 l 91 1012 l 208 1012 "},"ќ":{"x_min":80.5625,"x_max":697.21875,"ha":694,"o":"m 195 727 l 195 419 l 504 727 l 652 727 l 275 366 l 697 0 l 554 0 l 195 300 l 195 0 l 80 0 l 80 727 l 195 727 m 354 988 l 511 988 l 304 783 l 220 783 l 354 988 "},"ё":{"x_min":55.5625,"x_max":712.5,"ha":772,"o":"m 357 994 l 357 851 l 212 851 l 212 994 l 357 994 m 582 994 l 582 851 l 437 851 l 437 994 l 582 994 m 712 325 l 176 325 q 215 169 177 225 q 390 75 275 75 q 580 220 531 75 l 697 220 q 522 -6 666 52 q 386 -31 461 -31 q 109 120 197 -31 q 55 354 55 215 q 186 680 55 573 q 388 748 269 748 q 638 634 548 748 q 683 556 666 600 q 712 325 712 480 m 179 419 l 587 419 q 588 427 588 422 q 506 601 588 538 q 387 641 454 641 q 212 537 269 641 q 179 419 184 487 "},"m":{"x_min":97.21875,"x_max":1058.328125,"ha":1157,"o":"m 97 727 l 204 727 l 204 625 q 381 745 279 730 q 427 748 402 748 q 611 658 551 748 q 623 637 618 648 q 786 743 698 727 q 847 748 813 748 q 1051 612 1016 748 q 1058 545 1058 581 l 1058 0 l 941 0 l 941 501 q 854 640 941 613 q 806 647 831 647 q 670 572 722 647 q 636 456 636 520 l 636 0 l 519 0 l 519 501 q 420 643 519 622 q 384 647 404 647 q 247 569 298 647 q 213 456 213 519 l 213 0 l 97 0 l 97 727 "},"Е":{"x_min":109.71875,"x_max":836.109375,"ha":926,"o":"m 238 461 l 238 113 l 836 113 l 836 0 l 109 0 l 109 1012 l 811 1012 l 811 898 l 238 898 l 238 575 l 790 575 l 790 461 l 238 461 "},"Ҏ":{"x_min":126.390625,"x_max":856.953125,"ha":926,"o":"m 255 429 l 255 0 l 126 0 l 126 1012 l 544 1012 q 833 848 768 1012 q 856 715 856 791 q 769 501 856 580 q 573 429 688 429 l 255 429 m 255 543 l 525 543 q 708 645 666 543 q 722 720 722 679 q 612 884 722 845 l 565 895 q 525 898 545 898 l 255 898 l 255 543 "},"Э":{"x_min":66.671875,"x_max":940.28125,"ha":1003,"o":"m 811 461 l 301 461 l 301 575 l 806 575 q 641 877 783 795 q 493 915 576 915 q 297 855 366 915 l 293 851 q 219 698 240 802 l 87 698 q 477 1029 147 1029 q 798 902 684 1029 q 940 494 940 748 q 793 86 940 237 q 483 -31 679 -31 q 66 369 112 -31 l 200 369 q 245 212 215 270 q 444 83 302 98 q 481 81 462 81 q 750 236 661 81 q 811 461 804 327 "},"ӧ":{"x_min":50,"x_max":708.328125,"ha":772,"o":"m 339 926 l 339 783 l 194 783 l 194 926 l 339 926 m 564 926 l 564 783 l 419 783 l 419 926 l 564 926 m 377 748 q 668 569 588 748 q 708 352 708 479 q 566 22 708 120 q 379 -31 488 -31 q 95 133 179 -31 q 50 358 50 226 q 195 697 50 600 q 377 748 272 748 m 379 641 q 197 513 250 641 q 170 358 170 447 q 279 101 170 168 q 379 75 322 75 q 558 197 504 75 q 587 354 587 262 q 473 619 587 555 q 379 641 431 641 "},"Ӡ":{"x_min":66.671875,"x_max":862.5,"ha":926,"o":"m 356 445 l 356 559 l 479 559 q 652 643 580 559 q 698 750 698 698 q 598 895 698 851 q 472 920 544 920 q 230 784 273 920 q 219 715 219 752 l 97 715 q 268 991 98 916 q 468 1029 351 1029 q 777 898 686 1029 q 822 795 811 852 q 827 731 827 765 q 681 519 827 581 q 861 312 841 459 q 862 277 862 295 q 781 73 862 161 q 751 45 766 58 q 466 -31 650 -31 q 126 112 231 -31 q 66 322 68 191 l 188 322 l 193 269 q 241 166 202 212 q 475 81 312 81 q 661 125 598 81 q 731 245 722 168 q 733 265 733 255 q 662 391 733 333 q 506 445 595 445 l 356 445 "},"ю":{"x_min":97.21875,"x_max":1001.390625,"ha":1053,"o":"m 347 429 q 397 595 347 509 q 670 748 484 748 q 961 569 881 748 q 1001 352 1001 479 q 859 22 1001 120 q 672 -31 781 -31 q 379 155 458 -31 q 344 323 344 236 l 213 323 l 213 0 l 97 0 l 97 727 l 213 727 l 213 429 l 347 429 m 672 641 q 490 513 543 641 q 463 358 463 447 q 572 101 463 168 q 672 75 615 75 q 851 197 797 75 q 880 354 880 262 q 766 619 880 555 l 726 634 q 672 641 701 641 "},"Ӟ":{"x_min":66.671875,"x_max":862.5,"ha":926,"o":"m 419 1211 l 419 1068 l 274 1068 l 274 1211 l 419 1211 m 644 1211 l 644 1068 l 499 1068 l 499 1211 l 644 1211 m 356 445 l 356 559 l 479 559 q 652 643 580 559 q 698 750 698 698 q 598 895 698 851 q 472 920 544 920 q 230 784 273 920 q 219 715 219 752 l 97 715 q 268 991 98 916 q 468 1029 351 1029 q 777 898 686 1029 q 822 795 811 852 q 827 731 827 765 q 681 519 827 581 q 861 312 841 459 q 862 277 862 295 q 781 73 862 161 q 751 45 766 58 q 466 -31 650 -31 q 126 112 231 -31 q 66 322 68 191 l 188 322 l 193 269 q 241 166 202 212 q 475 81 312 81 q 661 125 598 81 q 731 245 722 168 q 733 265 733 255 q 662 391 733 333 q 506 445 595 445 l 356 445 "},"Ѐ":{"x_min":125,"x_max":851.390625,"ha":926,"o":"m 487 1273 l 620 1068 l 537 1068 l 330 1273 l 487 1273 m 254 461 l 254 113 l 851 113 l 851 0 l 125 0 l 125 1012 l 826 1012 l 826 898 l 254 898 l 254 575 l 805 575 l 805 461 l 254 461 "},"Ӱ":{"x_min":36.109375,"x_max":859.71875,"ha":903,"o":"m 408 1211 l 408 1068 l 263 1068 l 263 1211 l 408 1211 m 633 1211 l 633 1068 l 488 1068 l 488 1211 l 633 1211 m 350 0 l 193 0 l 372 338 l 36 1012 l 193 1012 l 450 486 l 705 1012 l 859 1012 l 350 0 "},"K":{"x_min":109.71875,"x_max":913.890625,"ha":926,"o":"m 238 354 l 238 0 l 109 0 l 109 1012 l 238 1012 l 238 500 l 743 1012 l 909 1012 l 497 600 l 913 0 l 761 0 l 404 519 l 238 354 "},"7":{"x_min":63.890625,"x_max":722.21875,"ha":772,"o":"m 722 984 l 722 881 q 350 133 441 509 q 322 0 333 68 l 191 0 q 390 540 261 302 q 595 863 466 680 l 63 863 l 63 984 l 722 984 "},"п":{"x_min":97.21875,"x_max":676.390625,"ha":774,"o":"m 97 727 l 676 727 l 676 0 l 559 0 l 559 622 l 213 622 l 213 0 l 97 0 l 97 727 "},"Y":{"x_min":18.0625,"x_max":918.0625,"ha":926,"o":"m 537 397 l 537 0 l 408 0 l 408 397 l 18 1012 l 177 1012 l 475 519 l 763 1012 l 918 1012 l 537 397 "},"E":{"x_min":125,"x_max":851.390625,"ha":926,"o":"m 254 461 l 254 113 l 851 113 l 851 0 l 125 0 l 125 1012 l 826 1012 l 826 898 l 254 898 l 254 575 l 805 575 l 805 461 l 254 461 "},"Є":{"x_min":66.671875,"x_max":940.28125,"ha":1003,"o":"m 197 461 q 344 136 208 234 q 525 81 422 81 q 747 188 676 81 q 761 212 755 200 q 806 369 791 270 l 940 369 q 523 -31 894 -31 q 213 86 327 -31 q 66 494 66 237 q 208 902 66 748 q 529 1029 322 1029 q 919 698 859 1029 l 787 698 q 713 851 766 802 q 513 915 638 912 q 254 759 338 915 q 209 636 223 705 q 200 575 202 606 l 705 575 l 705 461 l 197 461 "},"ҕ":{"x_min":97.21875,"x_max":506.9375,"ha":597,"o":"m 97 727 l 506 727 l 506 622 l 213 622 l 213 0 l 97 0 l 97 727 "},"ӵ":{"x_min":97.21875,"x_max":625,"ha":722,"o":"m 308 926 l 308 783 l 163 783 l 163 926 l 308 926 m 533 926 l 533 783 l 388 783 l 388 926 l 533 926 m 97 727 l 213 727 l 213 454 q 273 386 213 397 q 294 384 283 384 l 508 384 l 508 727 l 625 727 l 625 0 l 508 0 l 508 279 l 298 279 q 131 348 190 279 q 97 450 97 391 l 97 727 "},"Ө":{"x_min":52.78125,"x_max":1030.5625,"ha":1081,"o":"m 540 1029 q 916 858 781 1029 l 952 805 q 1030 490 1030 672 q 916 138 1030 284 q 855 75 888 102 q 541 -31 729 -31 q 173 130 309 -31 q 52 498 52 275 q 206 902 52 754 q 540 1029 338 1029 m 540 915 q 259 773 359 915 q 181 498 181 662 q 313 163 181 279 q 541 81 406 81 q 820 220 720 81 q 901 493 901 330 q 765 837 901 722 q 540 915 673 915 "},"|":{"x_min":138.890625,"x_max":222.21875,"ha":361,"o":"m 138 1012 l 222 1012 l 222 -294 l 138 -294 l 138 1012 "},"џ":{"x_min":97.21875,"x_max":677.78125,"ha":772,"o":"m 436 0 l 436 -166 l 338 -166 l 338 0 l 97 0 l 97 727 l 213 727 l 213 105 l 561 105 l 561 727 l 677 727 l 677 0 l 436 0 "},"љ":{"x_min":97.21875,"x_max":1133.328125,"ha":1167,"o":"m 676 727 l 676 430 l 833 430 q 1093 354 1030 430 q 1125 286 1115 326 q 1130 256 1127 272 q 1133 216 1133 231 l 1133 215 q 1058 55 1133 115 q 1037 40 1048 48 q 901 0 977 0 l 559 0 l 559 622 l 320 622 l 316 427 q 290 204 309 286 q 97 0 238 0 l 97 111 q 198 350 180 111 q 205 726 205 461 l 205 727 l 676 727 m 676 105 l 848 105 q 994 152 966 105 q 1005 187 1002 166 l 1006 211 q 950 309 1006 287 l 902 320 l 891 322 q 848 325 866 325 l 676 325 l 676 105 "},"җ":{"x_min":19.4375,"x_max":1137.5,"ha":1163,"o":"m 520 300 l 162 0 l 19 0 l 441 366 l 63 727 l 212 727 l 520 419 l 520 727 l 636 727 l 636 419 l 944 727 l 1093 727 l 715 366 l 1137 0 l 994 0 l 636 300 l 636 0 l 520 0 l 520 300 "},"һ":{"x_min":95.828125,"x_max":600,"ha":706,"o":"m 600 0 l 483 0 l 483 312 l 212 312 l 212 0 l 95 0 l 95 727 l 212 727 l 212 418 l 483 418 q 591 372 572 418 q 600 316 600 351 l 600 0 "},"й":{"x_min":97.21875,"x_max":690.28125,"ha":788,"o":"m 97 727 l 213 727 l 213 154 l 540 727 l 690 727 l 690 0 l 575 0 l 575 573 l 248 0 l 97 0 l 97 727 m 184 970 l 266 970 q 394 879 277 879 q 519 958 501 879 q 520 970 520 963 l 602 970 q 391 783 587 783 q 213 862 272 783 q 184 970 186 901 "},"q":{"x_min":36.109375,"x_max":687.5,"ha":772,"o":"m 687 -302 l 572 -302 l 572 83 q 347 -31 493 -31 q 87 118 169 -31 q 36 350 36 212 q 162 680 36 573 q 352 748 241 748 q 584 630 501 748 l 584 727 l 687 727 l 687 -302 m 369 640 q 194 527 252 640 q 156 358 156 456 q 254 113 156 188 q 369 76 304 76 q 538 188 483 76 q 572 354 572 258 q 473 606 572 536 q 369 640 427 640 "},"b":{"x_min":75,"x_max":726.390625,"ha":772,"o":"m 75 1012 l 190 1012 l 190 629 q 415 748 269 748 q 675 598 593 748 q 726 366 726 504 q 600 36 726 143 q 409 -31 520 -31 q 179 93 261 -31 l 179 0 l 75 0 l 75 1012 m 393 640 q 223 523 277 640 q 190 358 190 454 q 286 112 190 184 q 393 76 331 76 q 568 186 509 76 q 605 354 605 256 q 505 604 605 530 q 393 640 454 638 "},"Ӌ":{"x_min":115.28125,"x_max":769.453125,"ha":892,"o":"m 640 419 l 244 419 q 118 504 136 419 q 115 531 115 516 l 115 1012 l 244 1012 l 244 533 l 640 533 l 640 1012 l 769 1012 l 769 0 l 640 0 l 640 419 "},"Ҟ":{"x_min":109.71875,"x_max":913.890625,"ha":926,"o":"m 238 0 l 109 0 l 109 1012 l 238 1012 l 238 575 l 743 1012 l 909 1012 l 337 520 l 913 0 l 761 0 l 238 450 l 238 0 "},"Ж":{"x_min":87.5,"x_max":1316.671875,"ha":1421,"o":"m 637 450 l 240 0 l 87 0 l 538 520 l 145 1012 l 306 1012 l 637 584 l 637 1012 l 766 1012 l 766 584 l 1097 1012 l 1258 1012 l 865 520 l 1316 0 l 1152 0 l 766 450 l 766 0 l 637 0 l 637 450 "},"Н":{"x_min":109.71875,"x_max":888.890625,"ha":999,"o":"m 758 461 l 240 461 l 240 0 l 109 0 l 109 1012 l 238 1012 l 238 575 l 758 575 l 758 1012 l 888 1012 l 888 0 l 758 0 l 758 461 "},"ф":{"x_min":84.71875,"x_max":1180.5625,"ha":1267,"o":"m 687 618 q 888 748 750 748 q 1151 552 1084 748 q 1180 351 1180 468 q 1047 15 1180 109 l 1005 -8 q 890 -31 954 -31 q 730 27 794 -31 q 687 76 711 47 l 687 -302 l 572 -302 l 572 83 q 445 -22 513 -2 q 368 -31 412 -31 q 102 190 156 -31 q 84 350 84 261 q 229 709 84 619 q 373 748 290 748 q 572 618 504 748 l 572 936 l 687 936 l 687 618 m 869 640 q 700 479 737 640 q 687 358 687 426 q 804 88 687 138 q 869 76 833 76 q 1043 220 1000 76 q 1059 354 1059 279 q 938 626 1059 575 l 900 637 l 869 640 m 390 640 q 215 465 248 640 q 205 358 205 418 q 340 83 205 122 q 390 76 363 76 q 559 231 520 76 q 572 354 572 286 q 441 633 572 591 q 390 640 418 640 "},"л":{"x_min":97.21875,"x_max":676.390625,"ha":774,"o":"m 205 727 l 676 727 l 676 0 l 559 0 l 559 622 l 320 622 l 318 420 q 97 -13 298 -13 l 97 97 q 198 355 180 97 q 205 727 205 456 "},"L":{"x_min":111.109375,"x_max":740.28125,"ha":772,"o":"m 240 1012 l 240 113 l 740 113 l 740 0 l 111 0 l 111 1012 l 240 1012 "},"Щ":{"x_min":109.71875,"x_max":1133.328125,"ha":1181,"o":"m 1022 0 l 109 0 l 109 1012 l 240 1012 l 240 113 l 509 113 l 509 1012 l 640 1012 l 640 113 l 909 113 l 909 1012 l 1040 1012 l 1040 102 l 1133 102 l 1133 -187 l 1022 -187 l 1022 0 "},"Ҡ":{"x_min":109.71875,"x_max":913.890625,"ha":926,"o":"m 238 0 l 109 0 l 109 1012 l 238 1012 l 238 575 l 743 1012 l 909 1012 l 337 520 l 913 0 l 761 0 l 238 450 l 238 0 "}," ":{"x_min":0,"x_max":0,"ha":386},"♪":{"x_min":76.390625,"x_max":691.671875,"ha":771,"o":"m 384 698 l 384 115 q 306 13 384 45 q 230 0 272 0 q 97 54 141 0 q 76 115 76 81 q 154 216 76 184 q 230 230 188 230 q 350 190 305 230 l 350 963 l 384 963 l 384 887 q 575 697 384 848 q 691 398 691 604 l 691 320 l 656 320 l 656 398 q 466 588 656 437 q 384 698 413 630 "},"+":{"x_min":69.4375,"x_max":741.671875,"ha":811,"o":"m 741 370 l 741 273 l 454 273 l 454 -13 l 356 -13 l 356 273 l 69 273 l 69 370 l 356 370 l 356 658 l 454 658 l 454 370 l 741 370 "},"ӂ":{"x_min":61.109375,"x_max":1095.828125,"ha":1163,"o":"m 369 970 l 451 970 q 579 879 462 879 q 704 958 686 879 q 705 970 705 963 l 787 970 q 576 783 772 783 q 399 862 457 783 q 369 970 371 901 m 636 727 l 520 727 l 520 448 l 254 727 l 105 727 l 441 380 l 61 0 l 208 0 l 520 313 l 520 0 l 636 0 l 636 313 l 948 0 l 1095 0 l 715 380 l 1051 727 l 902 727 l 636 448 l 636 727 "},"'":{"x_min":66.671875,"x_max":197.21875,"ha":265,"o":"m 66 984 l 197 984 l 197 830 l 159 644 l 104 644 l 66 830 l 66 984 "},"Р":{"x_min":109.71875,"x_max":840.28125,"ha":926,"o":"m 238 429 l 238 0 l 109 0 l 109 1012 l 527 1012 q 816 848 751 1012 q 840 715 840 791 q 752 501 840 580 q 556 429 672 429 l 238 429 m 238 543 l 508 543 q 691 645 650 543 q 705 720 705 679 q 595 884 705 845 l 548 895 q 508 898 529 898 l 238 898 l 238 543 "},"Ҽ":{"x_min":52.4375,"x_max":1030.21875,"ha":1081,"o":"m 1017 369 q 806 40 977 147 q 542 -32 692 -32 q 166 138 301 -32 l 130 191 q 52 506 52 324 q 166 858 52 712 q 227 922 194 894 q 541 1028 353 1028 q 909 866 773 1028 q 1030 498 1030 722 q 1028 462 1030 474 l 183 462 q 335 144 195 245 q 542 81 423 81 q 823 223 723 81 q 887 369 867 285 l 1017 369 m 185 576 l 896 576 q 730 862 870 772 q 541 915 648 915 q 262 776 362 915 q 185 576 201 692 "},"щ":{"x_min":97.21875,"x_max":947.21875,"ha":989,"o":"m 850 0 l 97 0 l 97 727 l 213 727 l 213 105 l 422 105 l 422 727 l 538 727 l 538 105 l 747 105 l 747 727 l 863 727 l 863 88 l 947 88 l 947 -166 l 850 -166 l 850 0 "},"ӕ":{"x_min":47.21875,"x_max":1173.609375,"ha":1235,"o":"m 1043 220 l 1159 220 q 990 -4 1129 56 q 850 -31 919 -29 q 619 61 701 -31 q 602 83 611 72 q 580 120 597 91 q 325 -29 451 -13 q 280 -31 302 -31 q 77 68 137 -31 q 47 183 47 118 q 186 380 47 329 q 408 420 261 408 q 522 465 505 429 q 529 502 529 479 l 529 533 q 365 641 529 641 q 200 534 222 641 q 195 512 197 525 l 79 512 q 129 663 83 612 q 368 748 205 748 q 611 634 545 748 q 809 745 679 730 q 851 748 830 748 q 1097 637 1005 748 q 1131 583 1118 612 q 1144 556 1138 570 q 1173 325 1173 480 l 637 325 q 676 169 638 225 q 851 75 736 75 q 1043 220 991 75 m 529 218 l 529 358 q 356 319 483 338 q 343 318 350 319 q 175 230 200 297 q 168 186 168 211 q 251 76 168 101 q 306 69 276 69 q 461 122 391 69 q 529 218 529 175 m 640 419 l 1048 419 q 958 609 1048 548 q 848 641 911 641 q 673 537 730 641 q 640 419 645 487 "},"Ҹ":{"x_min":115.28125,"x_max":769.453125,"ha":892,"o":"m 640 419 l 244 419 q 118 504 136 419 q 115 531 115 516 l 115 1012 l 244 1012 l 244 533 l 640 533 l 640 1012 l 769 1012 l 769 0 l 640 0 l 640 419 "},"Т":{"x_min":29.171875,"x_max":823.609375,"ha":849,"o":"m 491 898 l 491 0 l 362 0 l 362 898 l 29 898 l 29 1012 l 823 1012 l 823 898 l 491 898 "},"Ӧ":{"x_min":52.78125,"x_max":1030.5625,"ha":1081,"o":"m 501 1211 l 501 1068 l 356 1068 l 356 1211 l 501 1211 m 726 1211 l 726 1068 l 581 1068 l 581 1211 l 726 1211 m 540 1029 q 916 858 781 1029 l 952 805 q 1030 490 1030 672 q 916 138 1030 284 q 855 75 888 102 q 541 -31 729 -31 q 173 130 309 -31 q 52 498 52 275 q 206 902 52 754 q 540 1029 338 1029 m 540 915 q 259 773 359 915 q 181 498 181 662 q 313 163 181 279 q 541 81 406 81 q 820 220 720 81 q 901 493 901 330 q 765 837 901 722 q 540 915 673 915 "},"W":{"x_min":30.5625,"x_max":1290.28125,"ha":1311,"o":"m 1033 0 l 891 0 l 658 831 l 431 0 l 290 0 l 30 1012 l 175 1012 l 365 190 l 590 1012 l 729 1012 l 959 190 l 1145 1012 l 1290 1012 l 1033 0 "},"а":{"x_min":58.328125,"x_max":743.0625,"ha":772,"o":"m 743 68 l 743 -19 q 663 -31 694 -31 q 547 55 565 -31 q 544 75 545 65 q 297 -31 423 -30 q 84 72 144 -31 q 58 183 58 120 q 186 377 58 325 q 366 415 236 398 q 419 422 388 418 q 536 475 520 434 q 540 502 540 486 l 540 533 q 427 638 540 622 q 377 641 404 641 q 211 537 234 641 q 206 512 208 525 l 90 512 q 140 663 94 612 q 381 748 216 748 q 652 587 626 748 q 655 550 655 569 l 655 122 q 718 65 655 65 q 743 68 730 65 m 540 229 l 540 359 q 381 323 495 338 q 354 319 369 322 q 184 223 206 298 q 179 186 179 206 q 272 75 179 95 q 322 69 294 69 q 494 134 422 69 q 540 229 538 175 "},"ә":{"x_min":55.5,"x_max":712.4375,"ha":772,"o":"m 55 392 l 591 392 q 552 547 590 492 q 377 642 493 642 q 187 496 236 642 l 70 496 q 245 723 101 664 q 381 748 306 748 q 658 596 570 748 q 712 362 712 501 q 581 36 712 143 q 379 -31 498 -31 q 129 82 219 -31 q 84 160 101 117 q 55 392 55 236 m 588 297 l 180 297 q 179 289 179 294 q 261 115 179 178 q 380 75 313 75 q 555 179 498 75 q 588 297 583 229 "},"v":{"x_min":13.890625,"x_max":675,"ha":694,"o":"m 395 0 l 269 0 l 13 727 l 144 727 l 338 137 l 544 727 l 675 727 l 395 0 "},">":{"x_min":69.4375,"x_max":748.609375,"ha":811,"o":"m 748 370 l 748 275 l 69 -12 l 69 97 l 616 320 l 69 548 l 69 658 l 748 370 "},"ө":{"x_min":50,"x_max":708.328125,"ha":772,"o":"m 377 748 q 668 569 588 748 q 708 352 708 479 q 566 22 708 120 q 379 -31 488 -31 q 95 133 179 -31 q 50 358 50 226 q 195 697 50 600 q 377 748 272 748 m 379 641 q 197 513 250 641 q 170 358 170 447 q 279 101 170 168 q 379 75 322 75 q 558 197 504 75 q 587 354 587 262 q 473 619 587 555 q 379 641 431 641 "},"Ї":{"x_min":10.671875,"x_max":380.109375,"ha":386,"o":"m 155 1261 l 155 1118 l 10 1118 l 10 1261 l 155 1261 m 380 1261 l 380 1118 l 235 1118 l 235 1261 l 380 1261 m 269 1012 l 269 0 l 138 0 l 138 1012 l 269 1012 "},"ѐ":{"x_min":55.5625,"x_max":712.5,"ha":772,"o":"m 348 1027 l 481 822 l 398 822 l 191 1027 l 348 1027 m 712 325 l 176 325 q 215 169 177 225 q 390 75 275 75 q 580 220 531 75 l 697 220 q 522 -6 666 52 q 386 -31 461 -31 q 109 120 197 -31 q 55 354 55 215 q 186 680 55 573 q 388 748 269 748 q 638 634 548 748 q 683 556 666 600 q 712 325 712 480 m 179 419 l 587 419 q 588 427 588 422 q 506 601 588 538 q 387 641 454 641 q 212 537 269 641 q 179 419 184 487 "},"Ҥ":{"x_min":115.28125,"x_max":1427.78125,"ha":1472,"o":"m 894 0 l 763 0 l 763 461 l 245 461 l 245 0 l 115 0 l 115 1012 l 244 1012 l 244 575 l 763 575 l 763 1012 l 1427 1012 l 1427 898 l 894 898 l 894 0 "},"Х":{"x_min":30.5625,"x_max":901.390625,"ha":926,"o":"m 543 519 l 901 0 l 741 0 l 465 422 l 187 0 l 30 0 l 388 519 l 52 1012 l 209 1012 l 469 615 l 730 1012 l 884 1012 l 543 519 "},"r":{"x_min":95.828125,"x_max":445.828125,"ha":463,"o":"m 95 727 l 202 727 l 202 595 q 363 744 283 725 q 401 748 381 748 q 445 744 416 748 l 445 626 q 302 595 345 625 q 294 590 298 593 q 212 377 212 530 l 212 0 l 95 0 l 95 727 "},"ж":{"x_min":61.109375,"x_max":1095.828125,"ha":1163,"o":"m 636 727 l 520 727 l 520 448 l 254 727 l 105 727 l 441 380 l 61 0 l 208 0 l 520 313 l 520 0 l 636 0 l 636 313 l 948 0 l 1095 0 l 715 380 l 1051 727 l 902 727 l 636 448 l 636 727 "},"x":{"x_min":23.609375,"x_max":656.953125,"ha":694,"o":"m 405 376 l 656 0 l 522 0 l 340 279 l 155 0 l 23 0 l 280 370 l 37 727 l 169 727 l 344 463 l 519 727 l 650 727 l 405 376 "},"ӝ":{"x_min":61.109375,"x_max":1095.828125,"ha":1163,"o":"m 539 926 l 539 783 l 394 783 l 394 926 l 539 926 m 764 926 l 764 783 l 619 783 l 619 926 l 764 926 m 636 727 l 520 727 l 520 448 l 254 727 l 105 727 l 441 380 l 61 0 l 208 0 l 520 313 l 520 0 l 636 0 l 636 313 l 948 0 l 1095 0 l 715 380 l 1051 727 l 902 727 l 636 448 l 636 727 "},"с":{"x_min":43.0625,"x_max":662.5,"ha":694,"o":"m 654 483 l 537 483 q 402 638 519 618 l 365 641 q 186 502 234 641 q 163 351 163 438 q 273 98 163 161 q 368 75 313 75 q 545 250 516 75 l 662 250 q 502 -4 647 59 q 365 -31 443 -31 q 100 113 186 -31 q 43 351 43 211 q 170 680 43 573 q 366 748 252 748 q 594 654 513 748 q 605 640 600 647 q 654 483 645 580 "},"h":{"x_min":97.21875,"x_max":675,"ha":772,"o":"m 97 1012 l 212 1012 l 212 627 q 379 743 287 725 q 445 748 408 748 q 652 645 598 748 q 675 550 675 604 l 675 0 l 559 0 l 559 504 q 512 613 559 580 q 409 647 468 647 q 241 540 293 647 q 212 401 212 481 l 212 0 l 97 0 l 97 1012 "},"Ҳ":{"x_min":30.5625,"x_max":901.390625,"ha":926,"o":"m 543 519 l 901 0 l 741 0 l 465 422 l 187 0 l 30 0 l 388 519 l 52 1012 l 209 1012 l 469 615 l 730 1012 l 884 1012 l 543 519 "},".":{"x_min":120.828125,"x_max":265.28125,"ha":386,"o":"m 265 144 l 265 0 l 120 0 l 120 144 l 265 144 "},"f":{"x_min":25,"x_max":358.328125,"ha":386,"o":"m 358 727 l 358 633 l 237 633 l 237 0 l 122 0 l 122 633 l 25 633 l 25 727 l 122 727 l 122 851 q 225 1006 122 973 q 293 1016 255 1016 q 358 1009 325 1016 l 358 913 q 318 915 331 915 q 237 841 237 915 l 237 727 l 358 727 "},"A":{"x_min":23.609375,"x_max":906.953125,"ha":926,"o":"m 658 304 l 268 304 l 161 0 l 23 0 l 384 1012 l 551 1012 l 906 0 l 762 0 l 658 304 m 622 412 l 466 873 l 300 412 l 622 412 "},"ӑ":{"x_min":58.328125,"x_max":743.0625,"ha":772,"o":"m 163 970 l 245 970 q 373 879 256 879 q 498 958 480 879 q 499 970 499 963 l 581 970 q 370 783 566 783 q 193 862 251 783 q 163 970 165 901 m 743 68 l 743 -19 q 663 -31 694 -31 q 547 55 565 -31 q 544 75 545 65 q 297 -31 423 -30 q 84 72 144 -31 q 58 183 58 120 q 186 377 58 325 q 366 415 236 398 q 419 422 388 418 q 536 475 520 434 q 540 502 540 486 l 540 533 q 427 638 540 622 q 377 641 404 641 q 211 537 234 641 q 206 512 208 525 l 90 512 q 140 663 94 612 q 381 748 216 748 q 652 587 626 748 q 655 550 655 569 l 655 122 q 718 65 655 65 q 743 68 730 65 m 540 229 l 540 359 q 381 323 495 338 q 354 319 369 322 q 184 223 206 298 q 179 186 179 206 q 272 75 179 95 q 322 69 294 69 q 494 134 422 69 q 540 229 538 175 "},"O":{"x_min":52.78125,"x_max":1030.5625,"ha":1081,"o":"m 540 1029 q 916 858 781 1029 l 952 805 q 1030 490 1030 672 q 916 138 1030 284 q 855 75 888 102 q 541 -31 729 -31 q 173 130 309 -31 q 52 498 52 275 q 206 902 52 754 q 540 1029 338 1029 m 540 915 q 259 773 359 915 q 181 498 181 662 q 313 163 181 279 q 541 81 406 81 q 820 220 720 81 q 901 493 901 330 q 765 837 901 722 q 540 915 673 915 "},"3":{"x_min":44.4375,"x_max":702.78125,"ha":772,"o":"m 369 -31 q 51 223 95 -31 q 44 286 47 252 l 166 286 q 323 80 177 102 q 373 76 347 76 q 562 186 518 76 q 577 273 577 225 q 373 452 577 452 l 322 451 l 306 451 l 306 555 q 511 601 463 558 q 548 709 548 636 q 451 865 548 827 q 375 877 418 877 q 218 804 266 877 l 209 790 q 187 666 188 750 l 65 666 q 329 983 70 958 q 373 984 350 984 q 640 854 568 984 q 673 713 673 794 q 536 509 673 563 q 693 359 665 465 q 702 275 702 323 q 572 20 702 104 q 369 -31 488 -31 "},"ҟ":{"x_min":80.5625,"x_max":697.21875,"ha":694,"o":"m 195 727 l 195 419 l 504 727 l 652 727 l 275 366 l 697 0 l 554 0 l 195 300 l 195 0 l 80 0 l 80 727 l 195 727 "},"9":{"x_min":52.78125,"x_max":706.953125,"ha":772,"o":"m 375 984 q 706 504 706 984 q 616 108 706 247 q 408 -27 543 -4 q 352 -31 380 -31 q 116 97 193 -31 q 73 225 84 152 l 195 225 q 322 80 220 102 q 361 76 340 76 q 562 276 515 76 q 580 450 580 351 q 355 340 483 343 q 113 455 200 340 q 52 652 52 537 q 166 912 52 818 q 375 984 252 984 m 373 877 q 212 788 268 877 l 191 747 l 180 698 q 177 662 177 680 q 276 469 177 520 q 369 448 316 448 q 541 538 484 448 q 573 655 573 588 q 488 840 573 776 q 373 877 437 877 "},"l":{"x_min":94.4375,"x_max":211.109375,"ha":308,"o":"m 211 1012 l 211 0 l 94 0 l 94 1012 l 211 1012 "},"4":{"x_min":38.890625,"x_max":722.21875,"ha":772,"o":"m 454 236 l 38 236 l 38 365 l 486 984 l 576 984 l 576 345 l 722 345 l 722 236 l 576 236 l 576 0 l 454 0 l 454 236 m 454 345 l 454 776 l 145 345 l 454 345 "},"Ъ":{"x_min":112.5,"x_max":1188.890625,"ha":1246,"o":"m 433 0 l 433 898 l 112 898 l 112 1012 l 562 1012 l 562 626 l 791 626 q 1183 386 1138 626 q 1188 313 1188 352 q 1072 65 1188 155 q 869 0 987 0 l 433 0 m 562 113 l 856 113 q 1026 200 969 113 q 1059 312 1059 248 q 969 483 1059 429 q 856 512 920 512 l 562 512 l 562 113 "},"\r":{"x_min":0,"x_max":0,"ha":463}}}
